<svg id="Layer_1" data-name="Layer 1" xmlns="http://www.w3.org/2000/svg" viewBox="0 0 6820.82 2799.75"><defs><style>.cls-1{fill:#fff;opacity:0.5;}.cls-2,.cls-3{fill:#b7091e;}.cls-3{stroke:#b7091e;stroke-miterlimit:10;stroke-width:3px;}.cls-4,.cls-5{fill:#ff8603;}.cls-10,.cls-12,.cls-4,.cls-6,.cls-8{isolation:isolate;opacity:0.7;}.cls-6,.cls-7{fill:#038cd8;}.cls-8,.cls-9{fill:#ffd400;}.cls-10,.cls-11{fill:#2e753b;}.cls-12,.cls-13{fill:#034ea1;}.cls-14{fill:#552984;}.cls-15{fill:#3f3f3f;}</style></defs><rect class="cls-1" width="6820.82" height="2799.75" rx="1399.87"/><g id="Layer_1-2" data-name="Layer 1"><path class="cls-2" d="M1602.66,477.43c-11-14-28.32-22.54-48.53-23.9-26.36-1.79-54.14,8.11-72.94,25.87-31.79,30.14-42.3,74.53-50.76,110.21L1418,642.54c-14.16,3.41-28.5,6.24-42.93,8.45l-5.42,18q22.17-3.07,44-7.94L1146.54,1789.5c-30.81,130.1-69.11,292.05-176.77,401.49-135,137.28-379.09,165.29-544,62.41s-237.24-328.08-161.09-502.07a8.39,8.39,0,0,0-4.81-11.1,9,9,0,0,0-11.66,4.53c-79.25,181.24-4,415.76,167.86,523,69.91,43.54,153.35,64.55,237.32,64.55,122.45,0,245.87-44.74,329.31-129.51,111.06-112.86,150-277.38,181.22-409.52l269-1137a485.92,485.92,0,0,0,102.42-39.7c33.21-17.42,70.35-51.56,78.54-88.36C1618.07,509.62,1614.15,492,1602.66,477.43Zm-6.14,47.21c-7,31.33-41.06,61.9-69.74,77a465.53,465.53,0,0,1-89.32,35.69l10.33-43.88c7.93-33.55,17.81-75.3,46-101.93,13.8-13.15,34.64-21.18,54.23-21.18,1.6,0,3.2.09,4.8.17,10.69.77,25.57,4.35,35.62,17.25C1596.87,498.43,1599.55,510.81,1596.52,524.64Z" transform="translate(0 -28.19)"/><path class="cls-2" d="M653.37,2348.24c-90.45,0-175.42-23.15-245.75-66.95-178.25-111.21-256.33-354.76-174-542.91a25,25,0,0,1,45.89.54,24.22,24.22,0,0,1-.19,18.83c-73.09,167-3.6,383.3,154.92,482.13,159,99.16,394.13,72.22,524.21-60.06,104.46-106.18,142.22-265.59,172.55-393.67L1392.38,681.58q-10.25,1.8-20.56,3.23l-24.64,3.41,15.52-51.46,9.93-1.53c10.77-1.66,21.53-3.67,32.1-6L1414.92,586c9-37.8,20.09-84.74,55.31-118.13,21.92-20.71,54.43-32.28,85-30.2,24.77,1.67,46.07,12.31,60,29.94h0c14.38,18.27,19.44,41.06,14.24,64.15-10,44.72-52.92,81.28-86.69,99a499.48,499.48,0,0,1-96.47,38.45L1179.44,1796.92c-31.71,134.11-71.18,301-185.37,417C910.07,2299.3,785.88,2348.24,653.37,2348.24ZM1548,486.29c-15.56,0-32.53,6.58-43.23,16.77-24.74,23.42-34,62.59-41.43,94.05l-3.88,16.5a444.33,444.33,0,0,0,59.91-26.07c26.31-13.87,55.9-41.11,61.6-66.36,2-9.19.4-16.66-5-23.51-5.23-6.71-13.37-10.47-24.26-11.25C1550.55,486.37,1549.27,486.29,1548,486.29Z" transform="translate(0 -28.19)"/><path class="cls-2" d="M1365.69,621.5l-4.54,15.12-2,6.74-3.38,11.27-5.26,17.58-5.34,17.68-7.3,24.33-300.38,1000-21.29,71-64.65,215,49.08-218.81,16.12-72.13,228-1017.45.35-1.63,3.74-16.9c10.15.85,20.21,1.36,30.37,1.62-1.07,6-1.87,11.7-2.41,17-.26,2.57-.44,5-.62,7.43a112.34,112.34,0,0,0,.18,14.77c.18,1.71.44,3.33.71,4.78s.62,2.82,1,4.1c1.33,4.28,3.38,6.92,6.06,7.61a5.85,5.85,0,0,0,1.24.16c6.06,0,13.72-9.3,21.11-24.07,2.22-4.43,4.36-9.48,6.42-14.85s4.09-11.18,6-17.33c1-3.25,2-6.58,2.84-10,.63-2.39,1.25-4.78,1.78-7.16,1.43-6,2.58-11.87,3.47-17.42.27-1.46.45-2.82.62-4.18.45-3.25.81-6.32,1-9.31.27-2.21.36-4.35.54-6.4V618c.09-2,.09-4,.09-5.89a11.93,11.93,0,0,0-.09-1.79c-.45-12-3.12-19.81-8-21a6.58,6.58,0,0,0-1.25-.16c-7.75,0-18.34,15.37-27.25,38.15-1.69,4.27-3.29,8.88-4.9,13.67q-15.63-.13-31.26-1.29l4.45-20,5-22.28c.27-1.2.62-2.39.89-3.5,9.71-36.37,39.63-61,67.23-54.38h.18c.09,0,.09,0,.18.09C1362.67,546.55,1377,583.86,1365.69,621.5Z" transform="translate(0 -28.19)"/><path class="cls-2" d="M953.15,2000.74l-3.31-.87L1015,1708.93,1243.36,689.86l4.06-18.36,1.5.13c9.73.82,19.64,1.34,30.27,1.61l2,0-.34,2c-1,5.83-1.85,11.5-2.39,16.85-.25,2.49-.43,4.9-.6,7.22A113.7,113.7,0,0,0,1278,714c.18,1.62.43,3.2.69,4.62s.6,2.71,1,3.94c.79,2.53,2.29,5.75,4.83,6.41a4.65,4.65,0,0,0,.82.11c5,0,12.33-8.65,19.58-23.13,2.05-4.11,4.19-9.05,6.33-14.7,2-5,3.92-10.6,5.94-17.22,1-3.22,1.94-6.52,2.83-9.92.63-2.4,1.24-4.76,1.76-7.11,1.38-5.77,2.54-11.6,3.46-17.32.27-1.45.45-2.8.61-4.13.52-3.75.82-6.58,1-9.18.18-1.51.28-2.87.37-4.21l.17-2.24V618c.09-2.09.09-4,.09-5.89a9.93,9.93,0,0,0-.07-1.54c-.44-11.42-3-18.67-6.73-19.59a4.31,4.31,0,0,0-.85-.12c-5.56,0-15.64,11.46-25.66,37.07-1.81,4.56-3.48,9.43-4.87,13.58l-.4,1.18h-1.23c-10.4-.09-21-.52-31.37-1.29l-2-.15,9.88-44.19c.16-.72.36-1.43.53-2.14l.36-1.39c10-37.42,41-62.37,69.29-55.65h.69l.19.22c11.32,2.91,20.75,10.47,27.28,21.87,9.65,16.86,11.47,40,4.86,62Zm297-1325.59-3.77,17.07-228,1017.45L963.64,1954l72.17-240.19L1343.48,689.39,1364.05,621c6.34-21.11,4.64-43.29-4.56-59.34-6.15-10.75-15-17.8-25.64-20.39l-.36-.09c-26.44-6.27-55.67,17.57-65.17,53.17l-.36,1.43c-.18.65-.36,1.33-.51,2l-9,40.32c9.28.64,18.66,1,27.93,1.13,1.33-3.93,2.87-8.37,4.54-12.57,10.17-26,21.76-40.76,30.25-39.07,5.84,1.42,9.06,9.24,9.56,22.65a11.68,11.68,0,0,1,.09,1.86c0,1.9,0,3.9-.09,6v2l-.17,2.34c-.1,1.39-.2,2.81-.38,4.27-.15,2.6-.45,5.51-1,9.33-.18,1.39-.37,2.78-.64,4.26-.92,5.78-2.09,11.68-3.49,17.51-.53,2.37-1.15,4.77-1.78,7.16-.91,3.48-1.89,6.83-2.87,10.09-2.05,6.71-4,12.43-6,17.47-2.19,5.72-4.36,10.77-6.48,15-5.71,11.41-14.27,25-22.64,25a6.53,6.53,0,0,1-1.4-.16c-3.53-.89-6-3.83-7.52-8.8-.39-1.38-.75-2.79-1-4.3s-.55-3.16-.73-4.91a114.34,114.34,0,0,1-.18-15c.19-2.57.37-5,.63-7.52.49-4.84,1.19-9.93,2.08-15.16C1267.7,676.33,1258.83,675.85,1250.12,675.15Z" transform="translate(0 -28.19)"/><path class="cls-3" d="M1323.39,656.37c-.53,2.39-1.15,4.78-1.78,7.16-.89,3.41-1.87,6.75-2.84,10q-9.36.51-18.71.51c-1,.09-1.87.09-2.84.09-6,0-12-.09-18.08-.17-10.16-.25-20.22-.77-30.37-1.62-5.88-.42-11.84-1-17.82-1.62-139.18-15.19-273-80.58-358.7-187.56a8.35,8.35,0,0,1,1.69-12,9.19,9.19,0,0,1,12.47,1.54C969.5,576.45,1099.6,639.8,1234.69,654.05c6,.69,11.93,1.2,17.81,1.63,10.07.77,20.22,1.19,30.28,1.45,6.06.09,12.2.09,18.35,0,1.25,0,2.49,0,3.83-.09C1311.11,657,1317.25,656.71,1323.39,656.37Z" transform="translate(0 -28.19)"/><path class="cls-3" d="M1297.22,687.79c-6,0-12.15-.09-18.27-.17-11.08-.27-21.28-.83-31.32-1.67-5.77-.41-11.79-1-17.81-1.62C1080.7,668.05,946.6,597.86,861.59,491.7a22,22,0,0,1,4.22-31.49c9.44-7.17,23.48-5.48,31.15,3.82,78.25,97.68,201.83,161.94,339.16,176.43,5.27.6,10.75,1.1,17.37,1.58,8.83.68,18.51,1.14,29.64,1.43,5.77.08,11.79.08,17.8,0,1.16,0,2.13,0,3.16-.06l.67,0c5.33-.08,11.17-.3,17.87-.66l18-1-3.94,17.63c-.57,2.53-1.23,5.06-1.88,7.59-.95,3.64-2,7.13-3,10.54l-2.76,9.18-9.57.52c-6.3.35-12.67.52-18.93.53C1299.45,687.78,1298.37,687.79,1297.22,687.79Z" transform="translate(0 -28.19)"/><path class="cls-4" d="M2025.17,1695c-178.53,0-317.72-48.47-413.63-144.1-95.82-95.43-144.35-234.16-144.35-412.22S1515.9,822.48,1612,728.21,1847.72,586,2026.78,586,2344.87,634.2,2440,729.34c95,95,143.17,233.2,143.17,410.82,0,177.08-48.58,315.31-144.38,410.78C2342.93,1646.57,2203.74,1695,2025.17,1695Zm1.61-1096.72c-175.19,0-311.47,46.54-405,138.32s-141.16,227.18-141.16,402.07,47.37,310.75,140.8,403.86,229.15,140.13,403.77,140.13,310.53-47.16,403.81-140.13,140.8-228.54,140.8-402.41c0-174.42-47-309.84-139.62-402.46S2201.94,598.32,2026.78,598.32Zm-1.61,907.25c-99.45,0-175.36-31.24-225.55-92.82-49.78-61.06-75-152.79-75-272.58s25.52-211.67,75.8-273c50.77-61.85,126.9-93.2,226.38-93.2,198.41,0,299,123.21,299,366.18C2325.76,1382.62,2224.64,1505.57,2025.17,1505.57Zm1.61-719.24c-95,0-167.59,29.73-215.65,88.3-48.54,59.11-73.11,148.46-73.11,265.54s24.31,206.3,72.35,265.15c47.52,58.31,119.79,87.9,214.8,87.9,193.25,0,287.18-115.51,287.18-353.06C2312.35,902.08,2218.94,786.33,2026.78,786.33Z" transform="translate(0 -28.19)"/><path class="cls-5" d="M2207.45,1452.37a6.44,6.44,0,0,1-3.69-11.71l249.7-176.08L2280.9,1364.2a6.43,6.43,0,0,1-7.13-10.68L2493.33,1185l-186,107.34a6.42,6.42,0,0,1-7.16-10.63l196.72-154.08-178.77,103.17a6.43,6.43,0,0,1-7.13-10.67l174.71-133.84-164,94.7a6.48,6.48,0,0,1-8.6-2,6.41,6.41,0,0,1,1.5-8.68l158-118.58L2323,1138.12a6.43,6.43,0,0,1-7.18-10.64l160.54-125.6-155.57,89.82a6.44,6.44,0,0,1-7.08-10.74L2452.9,976.71,2317.21,1055a6.44,6.44,0,0,1-7.14-10.69l138.06-105.73-137,79.09a6.44,6.44,0,0,1-7.37-10.51l148.34-125.12L2298.65,970.7a6.44,6.44,0,0,1-7.4-10.48l138.62-118.14L2281.6,927.7a6.44,6.44,0,0,1-7.42-10.46l130.45-112.33L2259.31,888.8a6.43,6.43,0,0,1-7.34-10.51l121.37-101.68-139.67,80.66a6.44,6.44,0,0,1-7.49-10.41l119.73-105.74-149.66,86.41a6.43,6.43,0,0,1-7.4-10.46l115.75-99-152,87.78a6.44,6.44,0,0,1-7.25-10.6L2258,705,2106,792.8a6.44,6.44,0,0,1-7.6-10.29l125.45-117.13L2015.43,785.71a6.44,6.44,0,0,1-7.17-10.67l135.41-105.23L1907.82,806a6.44,6.44,0,1,1-6.44-11.15l317-183a6.44,6.44,0,0,1,7.17,10.67L2090.21,727.69l176-101.64a6.43,6.43,0,0,1,7.6,10.28L2148.38,753.45l176.68-102a6.43,6.43,0,0,1,7.22,10.61l-112.64,90.17,139-80.21a6.43,6.43,0,0,1,7.4,10.46l-115.76,99,144.84-83.62a6.44,6.44,0,0,1,7.5,10.4L2282.85,814,2431,728.46a6.44,6.44,0,0,1,7.35,10.53L2316.93,840.66l140.61-81.18a6.44,6.44,0,0,1,7.41,10.46L2334.52,882.28l150-86.6a6.44,6.44,0,0,1,7.4,10.48L2353.25,924.3l155.24-89.63a6.44,6.44,0,0,1,7.38,10.5L2367.54,970.3,2527.35,878a6.45,6.45,0,0,1,7.15,10.7L2396.44,994.44,2540,911.55a6.44,6.44,0,0,1,7.07,10.73l-139.25,104.28,141.38-81.65a6.44,6.44,0,0,1,7.19,10.65l-160.56,125.61L2558.9,987a6.45,6.45,0,0,1,7.1,10.74l-158,118.54,156.77-90.53a6.44,6.44,0,0,1,7.15,10.69l-174.76,133.88,172.24-99.43a6.44,6.44,0,0,1,7.18,10.66l-196.72,154.08,192-110.81a6.43,6.43,0,0,1,7.14,10.67L2359.46,1304l210.59-121.55a6.44,6.44,0,0,1,6.94,10.83l-249.71,176,239.23-138.1a6.43,6.43,0,1,1,6.43,11.14L2210.7,1451.49A6.46,6.46,0,0,1,2207.45,1452.37Z" transform="translate(0 -28.19)"/><path class="cls-5" d="M2031.64,1694.05a6.45,6.45,0,0,1-3.65-11.75l389.62-269L1940.07,1689a6.43,6.43,0,0,1-6.69-11l405.31-261.28-456.45,263.54a6.44,6.44,0,0,1-7-10.82l173.45-123.72-214,123.57a6.44,6.44,0,0,1-7.44-10.45l138.07-119.09L1774.6,1649.91a6.43,6.43,0,0,1-7.53-10.35l125-112.67-171,98.71a6.48,6.48,0,0,1-8.53-1.94,6.39,6.39,0,0,1,1.28-8.64l113.94-92.19-141.23,81.56A6.45,6.45,0,0,1,1679,1594l119.25-106.29-150.79,87a6.44,6.44,0,0,1-7.58-10.31l123.5-113.57L1610,1539.45a6.43,6.43,0,0,1-7.34-10.51l122.53-102.16-141.64,81.8a6.44,6.44,0,0,1-7.34-10.53L1705,1391.32l-144.32,83.31a6.43,6.43,0,0,1-7.25-10.58l132.28-107-145.35,83.92a6.46,6.46,0,0,1-8.53-1.93,6.39,6.39,0,0,1,1.25-8.64l141.87-115.09-151.11,87.24a6.44,6.44,0,0,1-7.26-10.58l150.18-121L1509,1362a6.44,6.44,0,0,1-7.08-10.74l140.67-105.46-142.94,82.5a6.45,6.45,0,0,1-7.08-10.75l146.64-109.38-147.46,85.08a6.44,6.44,0,0,1-7.08-10.73l157.19-117.74-155.95,90a6.45,6.45,0,0,1-7.1-10.73l166.87-125.16-164.34,94.83a6.43,6.43,0,0,1-7.11-10.68L1658,1063.61l-178.85,103.24a6.43,6.43,0,0,1-7.06-10.73l194.18-144-187,108a6.44,6.44,0,0,1-7-10.81l207-147.58L1481.3,1076a6.44,6.44,0,0,1-6.67-11l456.59-289-445.13,257a6.44,6.44,0,0,1-6.77-11l468.29-309.13-451.55,260.7a6.44,6.44,0,0,1-6.84-10.91L1896,685.4,1516.09,904.74a6.43,6.43,0,0,1-6.95-10.81l313.27-223.88L1555,824.5a6.46,6.46,0,0,1-7.49-10.44l148.83-130.14L1663.6,702.8a6.44,6.44,0,0,1-6.45-11.15l89.72-51.81a6.45,6.45,0,0,1,7.49,10.42L1605.52,780.41,1931,592.51a6.43,6.43,0,0,1,7,10.81L1624.63,827.21l413.91-239a6.44,6.44,0,0,1,6.83,10.9L1638.63,876.46l488.8-282.22a6.44,6.44,0,0,1,6.75,11L1665.91,914.32l533.2-307.86a6.44,6.44,0,0,1,6.68,11L1749.26,906.42l40-23.09a6.43,6.43,0,0,1,7,10.8l-207,147.59L1757,944.84a6.44,6.44,0,0,1,7,10.76l-194.19,144.05,170.4-98.37a6.43,6.43,0,0,1,7.1,10.7l-183.8,139.51,168.33-97.2A6.44,6.44,0,0,1,1739,1065l-166.82,125.17,156.47-90.34a6.44,6.44,0,0,1,7.08,10.73l-157.19,117.78,148.94-86a6.44,6.44,0,0,1,7.06,10.74l-146.62,109.39,141.23-81.5a6.44,6.44,0,0,1,7.08,10.73l-140.65,105.4,136.78-78.94a6.44,6.44,0,0,1,7.25,10.59l-150.18,121,149.51-86.33a6.43,6.43,0,0,1,7.27,10.57l-141.86,115.11,145.93-84.25a6.44,6.44,0,0,1,7.29,10.57l-132.29,107,139.33-80.42a6.44,6.44,0,0,1,7.33,10.53l-128.79,106.72,140.56-81.15a6.43,6.43,0,0,1,7.34,10.51l-122.55,102.15,139-80.25a6.44,6.44,0,0,1,7.58,10.31l-123.48,113.58,154.65-89.29a6.45,6.45,0,0,1,7.51,10.4l-119.23,106.29,158-91.22a6.42,6.42,0,0,1,7.26,10.56l-114,92.18,152.76-88.19a6.44,6.44,0,0,1,7.53,10.36l-125,112.68L2018,1494.55a6.43,6.43,0,0,1,7.4,10.44l-138,119.11,271.11-156.52a6.43,6.43,0,0,1,7,10.8l-173.51,123.75,568.05-328a6.44,6.44,0,0,1,6.71,11l-405.35,261.28,388.12-224a6.43,6.43,0,0,1,6.86,10.87l-389.62,269L2525,1395.36a6.43,6.43,0,0,1,6.9,10.85L2254,1599.12l236.25-136.42a6.45,6.45,0,0,1,7.43,10.47l-143.25,123L2386,1578a6.43,6.43,0,1,1,6.45,11.13l-91.35,52.75a6.43,6.43,0,0,1-7.42-10.45l143.23-123-310.4,179.2a6.44,6.44,0,0,1-6.9-10.87l277.91-192.91-362.68,209.4A6.68,6.68,0,0,1,2031.64,1694.05Z" transform="translate(0 -28.19)"/><path class="cls-6" d="M5493.15,1612H5262.86a6.07,6.07,0,0,1-6.3-5.83V1179.36H4837.69V1606.2a6.08,6.08,0,0,1-6.31,5.83h-231a6.08,6.08,0,0,1-6.32-5.83V603.79a6.08,6.08,0,0,1,6.32-5.82h231a6.09,6.09,0,0,1,6.31,5.82V990.85h418.87V603.79a6.07,6.07,0,0,1,6.3-5.82h230.29a6.07,6.07,0,0,1,6.29,5.82V1606.2A6.05,6.05,0,0,1,5493.15,1612Zm-224-11.63h217.66V609.6H5269.17V996.66a6.07,6.07,0,0,1-6.31,5.82H4831.38a6.08,6.08,0,0,1-6.33-5.82V609.6H4606.66v990.8h218.39V1173.56a6.07,6.07,0,0,1,6.33-5.8h431.48a6.06,6.06,0,0,1,6.31,5.8Z" transform="translate(0 -28.19)"/><path class="cls-7" d="M5263.32,993.87a6,6,0,0,1-3.81-10.76l168.68-136-161.9,93.48a6.06,6.06,0,0,1-6.74-10.05l157.2-121-150.51,86.91a6.06,6.06,0,0,1-6.82-10l167.7-134.57-160.95,92.94a6.06,6.06,0,0,1-6.65-10.1L5406,725.58l-139.85,80.76a6.07,6.07,0,0,1-6.81-10l164.55-130.22-157.8,91.14a6.07,6.07,0,0,1-7-9.86l123.24-105.48L5266,709.07a6.06,6.06,0,0,1-7.69-9.13l61.12-73.73L5266,657.12a6.07,6.07,0,0,1-9-6l4.74-37.42a6.06,6.06,0,0,1-1.82-11.19l6.08-3.51a6.07,6.07,0,0,1,9,6l-4.49,35.51,72.17-41.67a6.07,6.07,0,0,1,7.71,9.13l-61.13,73.72,143.78-83a6.06,6.06,0,0,1,7,9.85L5316.75,714l172.89-99.82a6.06,6.06,0,0,1,6.8,10L5331.89,754.38l157.79-91.11a6.06,6.06,0,0,1,6.66,10.1L5349.85,782.51l139.84-80.75a6.07,6.07,0,0,1,6.83,10L5328.79,846.3l160.92-92.9a6.06,6.06,0,0,1,6.72,10.05l-157.18,121,150.46-86.88a6.06,6.06,0,0,1,6.84,10l-168.69,136,161.89-93.47a6.07,6.07,0,0,1,6.06,10.51L5266.34,993.07A6,6,0,0,1,5263.32,993.87Z" transform="translate(0 -28.19)"/><path class="cls-7" d="M5303,1612.18a6,6,0,0,1-3.87-10.69L5436,1486.76l-169.65,98a6.07,6.07,0,0,1-6.8-10l163.59-128.86-156.84,90.57a6.06,6.06,0,0,1-6.68-10.09l150.14-113-143.5,82.88a6.06,6.06,0,0,1-6.73-10l158.62-122.61-151.94,87.71a6.05,6.05,0,0,1-6.74-10L5420.22,1316l-154.08,89a6.07,6.07,0,0,1-6.82-10l167.31-133.83-160.54,92.71a6.07,6.07,0,0,1-6.78-10l161.32-125.9L5266,1307.22a6.06,6.06,0,0,1-6.79-10l163.42-128.54L5266,1259.13a6.06,6.06,0,0,1-6.66-10.09l148.78-111.46-142.17,82.08a6.06,6.06,0,0,1-6.77-10L5423,1080.58l-169.32,97.76a6.06,6.06,0,0,1-6.75-10l172.61-134.2-249.94,144.31a6.06,6.06,0,0,1-6.67-10.1l244.17-182.45-333.66,192.65a6.06,6.06,0,0,1-6.44-10.25l288.84-197-359.07,207.3a6.06,6.06,0,0,1-6.84-9.95l158.35-128.08L4909,1178.7a6.05,6.05,0,0,1-6.64-10.1l154.05-114.79L4840,1178.8a6.07,6.07,0,1,1-6.07-10.51l306.18-176.78a6.06,6.06,0,0,1,6.64,10.11l-154,114.8,216.46-125a6.06,6.06,0,0,1,6.84,10l-158.35,128.07L5489.76,880a6.06,6.06,0,0,1,6.43,10.27l-288.82,197,282.38-163.05a6.06,6.06,0,0,1,6.66,10.1L5252.26,1116.7l237.52-137.16a6.06,6.06,0,0,1,6.75,10L5323.9,1123.8l165.91-95.8a6.07,6.07,0,0,1,6.79,10L5332.75,1167.1l157.08-90.69a6.05,6.05,0,0,1,6.65,10.09l-148.74,111.42,142.11-82.05a6.06,6.06,0,0,1,6.79,10l-163.42,128.56L5489.85,1164a6.07,6.07,0,0,1,6.79,10L5335.3,1299.91l154.59-89.28a6.07,6.07,0,0,1,6.82,10l-167.32,133.82,160.53-92.69a6.06,6.06,0,0,1,6.77,10L5335.87,1397l154.07-89a6.06,6.06,0,0,1,6.75,10l-158.64,122.61L5490,1353a6.06,6.06,0,0,1,6.68,10.08l-150.14,112.94L5490,1393.24a6.06,6.06,0,0,1,6.78,10l-163.6,128.86L5490,1441.55a6.06,6.06,0,0,1,6.92,9.9l-136.87,114.73,130-75a6.07,6.07,0,0,1,7.52,9.34l-73.62,80.73L5490,1543a6.07,6.07,0,0,1,8.6,7.66l-17.72,40.67,9.13-5.28a6.06,6.06,0,1,1,6.06,10.5l-25,14.47a6.1,6.1,0,0,1-7.07-.73,6,6,0,0,1-1.52-6.93l17.71-40.67-84,48.5a6.07,6.07,0,0,1-7.51-9.35l73.58-80.74L5306,1611.39A5.92,5.92,0,0,1,5303,1612.18Z" transform="translate(0 -28.19)"/><path class="cls-7" d="M4626.13,1612.21a6.06,6.06,0,0,1-3.89-10.71l150.4-125-168.81,97.47A6.06,6.06,0,0,1,4597,1564l173-141.76-166.08,95.9a6.06,6.06,0,0,1-6.84-10L4766.9,1371l-163.06,94.16a6.06,6.06,0,0,1-6.74-10l159.09-123-152.36,88a6.06,6.06,0,0,1-6.81-10l167.36-133.71L4603.82,1369a6.06,6.06,0,0,1-6.63-10.13L4738.64,1255l-134.83,77.83a6.06,6.06,0,0,1-6.39-10.29l336.51-223.35L4603.8,1289.82a6.06,6.06,0,0,1-6.41-10.28l279.75-187.79L4603.8,1249.57a6.06,6.06,0,0,1-6.58-10.16l245.26-176.13L4603.8,1201.09a6.05,6.05,0,0,1-6.67-10.08l184.78-139.46-178.12,102.82a6.05,6.05,0,0,1-6.62-10.11l143.22-105.58-136.6,78.88a6.06,6.06,0,0,1-6.76-10l162.54-127.15-155.77,89.95a6.06,6.06,0,0,1-6.82-10l168.91-135.7-162.09,93.58a6.06,6.06,0,0,1-6.62-10.12l142.95-105.33-136.34,78.72a6.07,6.07,0,0,1-6.72-10.07L4754,851l-150.25,86.75a6.05,6.05,0,0,1-6.86-9.93l172.29-140.77-165.43,95.51a6,6,0,0,1-8.05-1.86,6.09,6.09,0,0,1,1.31-8.18l159.23-123.17-152.48,88a6.05,6.05,0,0,1-6.64-10.1l145.71-108.19-139.07,80.3a6.06,6.06,0,0,1-6.68-10.08L4749.5,674l-145.71,84.13a6.06,6.06,0,0,1-6.78-10l123.21-97.37L4603.79,718a6.07,6.07,0,0,1-7.44-9.43l74.44-78.36-67,38.67a6.06,6.06,0,0,1-9.06-5.85l5.05-49.3a6.07,6.07,0,0,1-2.06-11.24l6.08-3.5a6,6,0,0,1,9,5.86L4608,652.47l93-53.68a6.07,6.07,0,0,1,7.44,9.44L4634,686.59l152.36-88a6.06,6.06,0,0,1,6.79,10L4669.87,706l158-91.21a6.06,6.06,0,0,1,6.68,10.08L4682.15,740.16,4827.89,656a6.05,6.05,0,0,1,6.64,10.1L4688.89,774.3,4828,694a6.05,6.05,0,0,1,6.73,10L4675.48,827.21,4828,739.13a6.05,6.05,0,0,1,6.85,9.93L4662.62,889.82l165.48-95.54a6.06,6.06,0,0,1,6.71,10.06l-157,120.44L4828.15,838a6.06,6.06,0,0,1,6.63,10.12L4691.84,953.42l136.35-78.73a6.06,6.06,0,0,1,6.83,10L4666.1,1020.37l162.15-93.62a6.07,6.07,0,0,1,6.78,10l-162.56,127.15,155.84-90a6.06,6.06,0,0,1,6.63,10.12l-143.26,105.58,169.43-97.81a6.06,6.06,0,0,1,6.68,10.09L4683,1141.4l259.17-149.64a6.06,6.06,0,0,1,6.58,10.17L4703.5,1178l322.79-186.37a6.05,6.05,0,0,1,6.4,10.27L4753,1189.73l343.17-198.14a6.06,6.06,0,0,1,6.39,10.3L4766,1225.26l61.94-35.75a6.06,6.06,0,0,1,6.62,10.13l-141.46,103.88,134.87-77.86a6.06,6.06,0,0,1,6.82,10l-167.37,133.7L4828,1276.61a6.06,6.06,0,0,1,6.72,10.05l-159.09,123,152.41-88a6.06,6.06,0,0,1,6.84,10L4665,1468.84l163.11-94.19a6.06,6.06,0,0,1,6.87,9.94l-173,141.76,166.17-95.93a6.06,6.06,0,0,1,6.9,9.91l-150.38,125,143.54-82.88a6.06,6.06,0,0,1,7.27,9.58L4749,1576.78l79.27-45.78a6.06,6.06,0,0,1,8.21,8.4l-30,49.36,21.81-12.6a6.07,6.07,0,0,1,6.06,10.51l-42.3,24.42a6.07,6.07,0,0,1-8.21-8.4l30-49.35-100.3,57.92a6.06,6.06,0,0,1-7.26-9.59l86.49-84.71-163.61,94.45A6,6,0,0,1,4626.13,1612.21Z" transform="translate(0 -28.19)"/><path class="cls-8" d="M3356.51,1622.6H2668.62a6.23,6.23,0,0,1-6.45-5.95V592a6.2,6.2,0,0,1,6.45-5.93h236.16a6.2,6.2,0,0,1,6.45,5.93v839.24h445.28a6.22,6.22,0,0,1,6.46,6v179.42A6.22,6.22,0,0,1,3356.51,1622.6Zm-681.43-11.88h675V1443.17H2904.77a6.2,6.2,0,0,1-6.45-5.94V598H2675.08Z" transform="translate(0 -28.19)"/><path class="cls-9" d="M2692.38,1622.83a6.19,6.19,0,0,1-3.69-11.17l153.68-113.37-170.18,98.26a6.19,6.19,0,0,1-6.77-10.34l146.92-108.45-140.15,80.92a6.19,6.19,0,0,1-7-10.15L2841.84,1404l-169.65,97.94a6.19,6.19,0,0,1-6.94-10.21l168.8-133.38-161.86,93.45a6.19,6.19,0,0,1-6.85-10.27l160.6-123.24L2672.2,1407a6.18,6.18,0,0,1-7-10.15l173.86-140.43-166.86,96.34a6.19,6.19,0,0,1-6.85-10.28L2825.27,1220l-153.06,88.37a6.19,6.19,0,0,1-6.78-10.33l148.3-109.86-141.51,81.68a6.19,6.19,0,0,1-6.94-10.21L2834,1126.36l-161.81,93.37a6.19,6.19,0,0,1-7-10.17L2840,1067.75l-167.79,96.84a6.19,6.19,0,0,1-7-10.16l174.88-142-167.87,96.92a6.2,6.2,0,0,1-6.85-10.31l157.33-119.53-150.49,86.89a6.19,6.19,0,0,1-7-10.19l172.37-138.39-165.39,95.48a6.19,6.19,0,0,1-7-10.16l175.67-143.27-168.66,97.38a6.19,6.19,0,0,1-7-10.17l174.31-141.26-167.3,96.59a6.19,6.19,0,0,1-7-10.16L2841,748.87l-168.74,97.41a6.2,6.2,0,0,1-6.94-10.23l168.37-133-161.43,93.21A6.2,6.2,0,0,1,2665.3,786l167.52-131.93-160.59,92.73a6.19,6.19,0,0,1-7.1-10.09l123.62-104.45-116.52,67.27a6.19,6.19,0,0,1-7.56-9.65l67.66-70.2-60.1,34.71a6.24,6.24,0,0,1-6.48-.18,6.17,6.17,0,0,1-2.77-5.86l5.06-46.11a6.19,6.19,0,0,1-2-11.45l6.21-3.6a6.11,6.11,0,0,1,6.48.18,6.2,6.2,0,0,1,2.77,5.86l-4.87,44.33L2764.17,587a6.19,6.19,0,0,1,7.55,9.66l-67.66,70.19,138.6-80a6.19,6.19,0,0,1,7.08,10.09L2726.15,701.36l175.09-101.09a6.19,6.19,0,0,1,6.93,10.22L2740.64,742.43l160.63-92.74a6.19,6.19,0,0,1,6.94,10.22l-168.38,133,161.46-93.23a6.2,6.2,0,0,1,7,10.16L2732.56,853.28l168.76-97.44a6.19,6.19,0,0,1,7,10.18L2734,907.26l167.34-96.62a6.2,6.2,0,0,1,7,10.17L2732.66,964.07l168.7-97.4a6.19,6.19,0,0,1,7,10.19L2736,1015.27l165.42-95.51a6.2,6.2,0,0,1,6.84,10.3L2750.92,1049.6l150.49-86.89a6.19,6.19,0,0,1,7,10.16l-174.88,142,167.92-97a6.19,6.19,0,0,1,7,10.17L2733.66,1170l167.81-96.87a6.2,6.2,0,0,1,6.94,10.23l-168.74,133.35,161.82-93.4a6.19,6.19,0,0,1,6.78,10.34L2760,1243.44l141.55-81.69a6.19,6.19,0,0,1,6.86,10.28l-159.9,122.39,153.06-88.35a6.19,6.19,0,0,1,7,10.17l-173.87,140.45,166.91-96.38a6.2,6.2,0,0,1,6.87,10.29l-160.62,123.22,153.78-88.77a6.19,6.19,0,0,1,6.94,10.21l-168.8,133.38,161.89-93.45a6.19,6.19,0,0,1,7,10.15L2732,1509.87l169.65-97.94a6.19,6.19,0,0,1,6.78,10.34l-147,108.45,170.44-98.38a6.19,6.19,0,0,1,6.77,10.34L2785,1556l214.32-123.75a6.18,6.18,0,0,1,7,10.16l-159.86,129.49,242.06-139.76a6.19,6.19,0,0,1,6.81,10.32l-156.09,117,220.66-127.42a6.2,6.2,0,0,1,7,10.21L3007,1570.08,3246.12,1432a6.18,6.18,0,0,1,7,10.14l-159.91,130.36,243.55-140.61a6.19,6.19,0,0,1,7.1,10.08l-158.72,134.76L3353,1479.81a6.2,6.2,0,0,1,7,10.17l-101.3,82.9,94.39-54.48a6.18,6.18,0,0,1,7.86,9.3l-54.63,65.92,46.9-27.06a6.2,6.2,0,0,1,9.23,6.2l-4.66,33.83a6.19,6.19,0,0,1,1.71,11.4l-6.19,3.56a6.2,6.2,0,0,1-9.23-6.2l4.36-31.75-65.8,38a6.2,6.2,0,0,1-7.86-9.33l54.61-65.91L3199,1621.65a6.19,6.19,0,0,1-7-10.15l101.29-82.92L3132,1621.69a6.19,6.19,0,0,1-7.11-10.07l158.72-134.77-251,144.92a6.18,6.18,0,0,1-7-10.15l159.91-130.38L2942.1,1621.83a6.2,6.2,0,0,1-7-10.21L3095,1483.86l-239.08,138a6.18,6.18,0,0,1-6.81-10.3l156.09-117L2784.6,1622a6.19,6.19,0,0,1-7-10.16l159.85-129.47-242,139.7A6.48,6.48,0,0,1,2692.38,1622.83Z" transform="translate(0 -28.19)"/><path class="cls-10" d="M4528.67,1624.07a1.22,1.22,0,0,0-.27,0H4274.59a6.39,6.39,0,0,1-6.14-4.19l-79.17-239.08H3793.83l-79.16,239.08a6.4,6.4,0,0,1-6.16,4.19H3454.72a6.63,6.63,0,0,1-5.26-2.5,5.56,5.56,0,0,1-.81-5.39L3840.72,589.93a6.48,6.48,0,0,1,6.09-4h288a6.44,6.44,0,0,1,6.08,3.95l393.06,1024.83a5.51,5.51,0,0,1,1.18,3.41A6.2,6.2,0,0,1,4528.67,1624.07Zm-249.29-11.86h239.93L4130.25,597.82H3851.37L3463.83,1612.2h239.93l79.15-239a6.41,6.41,0,0,1,6.16-4.21h405a6.43,6.43,0,0,1,6.17,4.21ZM4137.85,1199H3848.34a6.66,6.66,0,0,1-5.2-2.41,5.55,5.55,0,0,1-1-5.26c78.62-234.12,126.92-382.94,143.53-442.25.75-2.66,3.4-4.17,6.34-4.45a6.3,6.3,0,0,1,6.18,4.62c4,16.69,10.76,39.6,20,68.11,9.38,29,50.51,151.28,125.74,374a5.55,5.55,0,0,1-1,5.27A6.63,6.63,0,0,1,4137.85,1199Zm-280.78-11.84h272c-73.61-217.87-113.9-337.75-123.2-366.4q-8.54-26.37-14.24-46.31C3971,843.89,3925.79,982.41,3857.07,1187.19Z" transform="translate(0 -28.19)"/><path class="cls-11" d="M4130.46,1174.4a6.16,6.16,0,0,1-4-10.84l118.94-102.13-125.26,72.33a6.17,6.17,0,0,1-7.19-10l120.61-106.73-127.91,73.84a6.18,6.18,0,0,1-7.14-10l117.65-102.57-124.28,71.76a6.18,6.18,0,0,1-6.91-10.21l99.71-78.14L4082,1021a6.17,6.17,0,0,1-7-10.1l108.89-90.28-113.58,65.57a6.18,6.18,0,0,1-7.06-10.08l109.26-91.61-114.24,66a6.18,6.18,0,0,1-7.18-10l114-100.75-120.6,69.65a6.17,6.17,0,0,1-7-10.1L4142.5,812,4033,875.23a6.18,6.18,0,0,1-7-10.17l98.16-78.81-101.37,58.52a6.18,6.18,0,0,1-6.95-10.17l95.7-76.33-98.38,56.8a6.18,6.18,0,0,1-7-10.15l96.05-77.3-98.55,56.89a6.18,6.18,0,0,1-6.88-10.22l87.47-68.17-88.34,51a6.18,6.18,0,1,1-6.18-10.7l165.57-95.59a6.18,6.18,0,0,1,6.89,10.22l-87.48,68.16,90.62-52.32a6.18,6.18,0,0,1,7,10.15l-96.06,77.31,100.43-58a6.18,6.18,0,0,1,6.95,10.17L4088,792.9l99.86-57.67a6.18,6.18,0,0,1,7,10.17l-98.14,78.79,102.63-59.26a6.18,6.18,0,0,1,7,10.12l-105.06,87.24,110.87-64a6.18,6.18,0,0,1,7.17,10L4105.35,909l122.24-70.59a6.18,6.18,0,0,1,7.06,10.09l-109.26,91.61L4241,873.33a6.18,6.18,0,0,1,7,10.12l-108.89,90.27,114.95-66.36a6.18,6.18,0,0,1,6.91,10.2l-99.7,78.15,103.74-59.9a6.18,6.18,0,0,1,7.15,10l-117.64,102.57,125.87-72.67a6.17,6.17,0,0,1,7.17,10L4167,1092.41l129.55-74.81a6.18,6.18,0,0,1,7.12,10l-118.94,102.12,126.81-73.21a6.17,6.17,0,1,1,6.17,10.69l-184.19,106.35A6.25,6.25,0,0,1,4130.46,1174.4Z" transform="translate(0 -28.19)"/><path class="cls-11" d="M4327.25,1623.89a6.17,6.17,0,0,1-3.89-11l92.79-75.27-139.26,80.42a6.18,6.18,0,0,1-6.89-10.23L4394.29,1511l-128.41,74.14a6.18,6.18,0,0,1-6.76-10.32l106.73-78.66-108.72,62.77a6.18,6.18,0,0,1-7.07-10.08l135.08-113.6-142,82a6.18,6.18,0,0,1-7-10.14l129.66-106.16-135.37,78.18a6.18,6.18,0,0,1-6.87-10.24l116.88-90.38L4220.09,1448a6.18,6.18,0,0,1-6.89-10.22l117.46-91.52-121.17,70a6.18,6.18,0,0,1-7-10.12l127.09-105-135.38,78.17a6.18,6.18,0,0,1-7.11-10l132.4-113.2-213.7,123.38a6.18,6.18,0,0,1-6.77-10.31l172.32-128-239.75,138.41a6.18,6.18,0,0,1-6.77-10.31l229.69-170.37-313.2,180.83a6.18,6.18,0,0,1-6.51-10.49l232.5-154.56-286,165.15a6.18,6.18,0,0,1-6.91-10.2l162.21-127.71-239.09,138a6.18,6.18,0,1,1-6.18-10.71l313.61-181.06a6.18,6.18,0,0,1,6.92,10.2l-162.22,127.71,381.05-220a6.18,6.18,0,0,1,6.51,10.49l-232.46,154.54,236.84-136.75a6.18,6.18,0,0,1,6.77,10.32L4118.59,1315l239.31-138.16a6.18,6.18,0,0,1,6.77,10.31l-172.31,128,179-103.34a6.18,6.18,0,0,1,7.11,10l-132.39,113.2,141.32-81.6a6.18,6.18,0,0,1,7,10.13l-127.09,105,134.49-77.66a6.18,6.18,0,0,1,6.88,10.23l-117.45,91.5,122.49-70.74a6.18,6.18,0,0,1,6.86,10.24l-116.9,90.39,121.73-70.28a6.18,6.18,0,0,1,7,10.14l-129.65,106.16,137-79.1a6.19,6.19,0,0,1,7.07,10.09l-135.09,113.59,143.69-83a6.18,6.18,0,0,1,6.76,10.33l-106.71,78.66,109.79-63.38a6.17,6.17,0,0,1,6.89,10.21l-124.29,96.87,129.78-74.93a6.18,6.18,0,0,1,7,10.16l-92.81,75.26,97.14-56.07a6.17,6.17,0,0,1,7.58,9.58L4435.81,1591l66.67-38.49a6.23,6.23,0,0,1,7.4.91,6.16,6.16,0,0,1,1.13,7.36l-21.71,40.35,26.1-15.07a6.17,6.17,0,1,1,6.18,10.69l-44.93,25.94a6.18,6.18,0,0,1-8.53-8.28l21.71-40.35-84.53,48.82a6.18,6.18,0,0,1-7.58-9.6l60.69-64.16-128.06,73.95A6.43,6.43,0,0,1,4327.25,1623.89Z" transform="translate(0 -28.19)"/><path class="cls-11" d="M3517.94,1624.34a6.17,6.17,0,0,1-3.82-11l185.68-144.82L3466.64,1603.1a6.17,6.17,0,0,1-6.45-10.52L3888,1313.94l-398.89,230.3a6.17,6.17,0,0,1-6.49-10.5l350.6-231.4-322.9,186.45a6.18,6.18,0,0,1-6.49-10.52l259.47-170.09-236.08,136.3a6.18,6.18,0,0,1-6.66-10.39l238.67-170L3550,1384.87a6.18,6.18,0,0,1-6.57-10.47l169.35-115-147.35,85.08a6.18,6.18,0,0,1-6.69-10.38l208.58-149.43L3586.66,1289a6.19,6.19,0,0,1-6.7-10.38l204.15-146.11-176.64,102a6.18,6.18,0,0,1-6.78-10.3l223.08-166.44L3632.87,1168a6.18,6.18,0,0,1-6.58-10.45l164.39-112.84-142,82a6.18,6.18,0,0,1-6.78-10.3l215.69-161.06-184,106.27a6.18,6.18,0,0,1-6.63-10.41l172.34-120.59-148.37,85.67a6.17,6.17,0,0,1-6.6-10.42l160-110.82-137.46,79.38a6.18,6.18,0,0,1-6.62-10.42l159.6-111-136.77,79a6.18,6.18,0,0,1-6.54-10.48L4002.82,728l-259,149.48a6.18,6.18,0,0,1-6.56-10.47l256.5-174.07L3763.58,825.88a6.18,6.18,0,0,1-6.75-10.32L3977.2,653.41,3787.65,762.85a6.18,6.18,0,0,1-7-10.14l142.8-116.12-112.34,64.85a6.18,6.18,0,0,1-7.08-10.06l69.75-59.21L3827.35,659a6.18,6.18,0,0,1-8.65-8l23.46-48.51a6.1,6.1,0,0,1-1.77-1.93,6.19,6.19,0,0,1,2.26-8.44l7.94-4.58a6.2,6.2,0,0,1,7.29.83,6.13,6.13,0,0,1,1.35,7.19l-20.68,42.73,88.21-50.92a6.17,6.17,0,0,1,7.09,10.05l-69.76,59.21,120.2-69.4a6.18,6.18,0,0,1,7,10.14l-142.8,116.15L4067.53,587a6.18,6.18,0,0,1,6.76,10.32L3853.92,759.44l280.95-162.21a6.18,6.18,0,0,1,6.54,10.47L3884.93,781.77,4147.71,630a6.18,6.18,0,0,1,6.54,10.48L3868,834l113-65.25a6.18,6.18,0,0,1,6.61,10.42l-159.61,111L3968.65,809a6.18,6.18,0,0,1,6.6,10.43l-160,110.78,140.8-81.3a6.17,6.17,0,0,1,6.63,10.39L3790.3,979.87l151.75-87.63a6.18,6.18,0,0,1,6.79,10.3l-215.7,161.07,188.54-108.85a6.18,6.18,0,0,1,6.58,10.45l-164.39,112.87,144.75-83.58a6.18,6.18,0,0,1,6.78,10.31l-223.07,166.43,195-112.62a6.18,6.18,0,0,1,6.7,10.37L3689.91,1215.1,3870.16,1111a6.18,6.18,0,0,1,6.71,10.37l-208.61,149.44,184.87-106.74a6.18,6.18,0,0,1,6.57,10.46l-169.36,115,174.79-100.92a6.17,6.17,0,0,1,6.68,10.37l-238.68,170,312.77-180.57a6.18,6.18,0,0,1,6.48,10.53l-259.43,170,313-180.7a6.18,6.18,0,0,1,6.49,10.51l-350.62,231.41,419.31-242.09a6.18,6.18,0,0,1,6.47,10.53l-427.81,278.61,110.82-64a6.18,6.18,0,0,1,6.89,10.22l-185.68,144.82,157.82-91.12a6.17,6.17,0,0,1,7.21,9.94l-106.5,95.49,79.8-46.08a6.22,6.22,0,0,1,7.8,1.36,6.15,6.15,0,0,1,0,7.9L3697.59,1595l16.47-9.51a6.18,6.18,0,0,1,6.18,10.71l-45.92,26.5a6.17,6.17,0,0,1-7.85-9.27l40.37-49.15-101.75,58.77a6.18,6.18,0,0,1-7.22-10l106.5-95.48L3521,1623.51A5.88,5.88,0,0,1,3517.94,1624.34Z" transform="translate(0 -28.19)"/><path class="cls-11" d="M3979.41,1302.61a6.36,6.36,0,0,1-3.4-11.74l341.42-215.49a6.36,6.36,0,1,1,6.79,10.76l-341.43,215.5A6.44,6.44,0,0,1,3979.41,1302.61Z" transform="translate(0 -28.19)"/><path class="cls-12" d="M6638.72,1624.07a1.13,1.13,0,0,0-.26,0H6384.65a6.4,6.4,0,0,1-6.15-4.19l-79.16-239.08H5903.88l-79.16,239.08a6.39,6.39,0,0,1-6.16,4.19H5564.77a6.61,6.61,0,0,1-5.25-2.5,5.51,5.51,0,0,1-.81-5.39L5950.78,589.93a6.47,6.47,0,0,1,6.09-4h288a6.45,6.45,0,0,1,6.08,3.95L6644,1614.74a5.52,5.52,0,0,1,1.19,3.41A6.21,6.21,0,0,1,6638.72,1624.07Zm-249.29-11.86h239.93L6240.3,597.82H5961.43L5573.89,1612.2h239.93l79.14-239a6.41,6.41,0,0,1,6.17-4.21h405a6.43,6.43,0,0,1,6.17,4.21ZM6247.9,1199H5958.39a6.67,6.67,0,0,1-5.2-2.41,5.6,5.6,0,0,1-1-5.26c78.62-234.12,126.92-382.94,143.54-442.25.75-2.66,3.4-4.17,6.33-4.45a6.3,6.3,0,0,1,6.18,4.62c4,16.69,10.77,39.6,20,68.11,9.38,29,50.52,151.28,125.74,374a5.52,5.52,0,0,1-1,5.27A6.62,6.62,0,0,1,6247.9,1199Zm-280.77-11.84h272c-73.61-217.87-113.9-337.75-123.21-366.4q-8.53-26.37-14.23-46.31C6081,843.89,6035.84,982.41,5967.13,1187.19Z" transform="translate(0 -28.19)"/><path class="cls-13" d="M6240.52,1174.4a6.16,6.16,0,0,1-4-10.84l118.94-102.13-125.27,72.33a6.17,6.17,0,0,1-7.19-10l120.61-106.73-127.9,73.84a6.18,6.18,0,0,1-7.15-10l117.66-102.57-124.28,71.76a6.18,6.18,0,0,1-6.91-10.21l99.7-78.14L6192.09,1021a6.17,6.17,0,0,1-7-10.1L6294,920.6l-113.57,65.57a6.18,6.18,0,0,1-7.06-10.08l109.25-91.61-114.22,66a6.18,6.18,0,0,1-7.19-10l114-100.75-120.6,69.65a6.17,6.17,0,0,1-7-10.1L6252.57,812,6143.1,875.23a6.18,6.18,0,0,1-7-10.17l98.16-78.81-101.36,58.52a6.18,6.18,0,0,1-7-10.17l95.7-76.33-98.38,56.8a6.17,6.17,0,0,1-7-10.15l96-77.3-98.54,56.89a6.17,6.17,0,0,1-6.88-10.22l87.46-68.17-88.33,51a6.18,6.18,0,1,1-6.19-10.7l165.57-95.59a6.18,6.18,0,0,1,6.89,10.22l-87.48,68.16,90.62-52.32a6.17,6.17,0,0,1,7,10.15l-96.05,77.31,100.42-58a6.18,6.18,0,0,1,6.95,10.17l-95.7,76.34,99.86-57.67a6.18,6.18,0,0,1,7,10.17l-98.14,78.79,102.63-59.26a6.18,6.18,0,0,1,7,10.12l-105.06,87.24,110.86-64a6.18,6.18,0,0,1,7.18,10L6215.42,909l122.24-70.59a6.18,6.18,0,0,1,7.06,10.09l-109.25,91.61,115.65-66.78a6.18,6.18,0,0,1,7,10.12l-108.88,90.27,114.94-66.36a6.18,6.18,0,0,1,6.91,10.2l-99.7,78.15,103.75-59.9a6.17,6.17,0,0,1,7.14,10l-117.64,102.57,125.87-72.67a6.18,6.18,0,0,1,7.19,10L6277.1,1092.41l129.55-74.81a6.18,6.18,0,0,1,7.12,10l-118.94,102.12,126.81-73.21a6.17,6.17,0,0,1,6.18,10.69l-184.21,106.35A6.29,6.29,0,0,1,6240.52,1174.4Z" transform="translate(0 -28.19)"/><path class="cls-13" d="M6437.31,1623.89a6.18,6.18,0,0,1-3.9-11l92.8-75.27-139.27,80.43a6.18,6.18,0,0,1-6.89-10.23L6504.34,1511l-128.41,74.14a6.18,6.18,0,0,1-6.75-10.32l106.72-78.66-108.72,62.77a6.18,6.18,0,0,1-7.07-10.08l135.09-113.6-142,82a6.18,6.18,0,0,1-7-10.14l129.66-106.16-135.37,78.18a6.18,6.18,0,0,1-6.87-10.24l116.89-90.38L6330.14,1448a6.18,6.18,0,0,1-6.89-10.22l117.47-91.52-121.18,70a6.18,6.18,0,0,1-7-10.12l127.08-105-135.38,78.17a6.18,6.18,0,0,1-7.11-10l132.4-113.2-213.69,123.38a6.18,6.18,0,0,1-6.77-10.31l172.32-128-239.75,138.41a6.18,6.18,0,0,1-6.77-10.31l229.68-170.37-313.2,180.83a6.17,6.17,0,0,1-6.5-10.49l232.49-154.56-286,165.15a6.18,6.18,0,0,1-6.91-10.2l162.22-127.71-239.11,138a6.18,6.18,0,0,1-6.18-10.71l313.62-181.06a6.18,6.18,0,0,1,6.92,10.2l-162.22,127.71,381.05-220a6.17,6.17,0,0,1,6.5,10.49l-232.45,154.54,236.83-136.75a6.18,6.18,0,0,1,6.78,10.32l-229.7,170.39,239.3-138.16a6.18,6.18,0,0,1,6.78,10.31l-172.32,128,179-103.34a6.17,6.17,0,0,1,7.1,10l-132.39,113.2,141.32-81.6a6.18,6.18,0,0,1,7,10.13l-127.09,105,134.49-77.66a6.18,6.18,0,0,1,6.88,10.23l-117.44,91.5,122.49-70.74a6.18,6.18,0,0,1,6.86,10.24l-116.91,90.39,121.73-70.28a6.18,6.18,0,0,1,7,10.14l-129.66,106.16,137-79.1a6.19,6.19,0,0,1,7.07,10.09l-135.08,113.59,143.68-83a6.18,6.18,0,0,1,6.76,10.33l-106.71,78.66,109.8-63.38a6.17,6.17,0,0,1,6.89,10.21l-124.29,96.87,129.77-74.93a6.18,6.18,0,0,1,7,10.16l-92.8,75.27,97.13-56.08a6.17,6.17,0,0,1,7.58,9.58L6545.86,1591l66.66-38.49a6.25,6.25,0,0,1,7.41.91,6.18,6.18,0,0,1,1.13,7.36l-21.71,40.35,26.1-15.07a6.17,6.17,0,1,1,6.17,10.69l-44.93,25.94a6.18,6.18,0,0,1-8.53-8.28l21.71-40.35-84.53,48.82a6.18,6.18,0,0,1-7.58-9.6l60.7-64.16-128.07,73.95A6.33,6.33,0,0,1,6437.31,1623.89Z" transform="translate(0 -28.19)"/><path class="cls-13" d="M5628,1624.34a6.17,6.17,0,0,1-3.81-11l185.67-144.82L5576.7,1603.1a6.17,6.17,0,0,1-6.46-10.52l427.83-278.64-398.88,230.3a6.18,6.18,0,0,1-6.5-10.5l350.61-231.4-322.91,186.45a6.18,6.18,0,0,1-6.48-10.52l259.47-170.1-236.09,136.3a6.18,6.18,0,0,1-6.66-10.39l238.67-170-209.22,120.8a6.18,6.18,0,0,1-6.56-10.47l169.34-115-147.35,85.08a6.18,6.18,0,0,1-6.68-10.38l208.57-149.43L5696.72,1289a6.19,6.19,0,0,1-6.71-10.38l204.16-146.11-176.65,102a6.18,6.18,0,0,1-6.78-10.3l223.09-166.44L5742.93,1168a6.18,6.18,0,0,1-6.58-10.45l164.38-112.83-142,82a6.18,6.18,0,0,1-6.78-10.3L5967.62,955.3l-184,106.27a6.18,6.18,0,0,1-6.63-10.41l172.34-120.59-148.37,85.67a6.17,6.17,0,0,1-6.61-10.42L5954.37,895,5816.9,974.38a6.18,6.18,0,0,1-6.61-10.42l159.6-111-136.78,79a6.18,6.18,0,0,1-6.54-10.48L6112.87,728,5853.93,877.48a6.17,6.17,0,0,1-6.55-10.46l256.5-174.08L5873.65,825.88a6.18,6.18,0,0,1-6.76-10.32l220.38-162.15L5897.72,762.85a6.18,6.18,0,0,1-7-10.14l142.79-116.12-112.35,64.85a6.18,6.18,0,0,1-7.08-10.06l69.76-59.21L5937.4,659a6.19,6.19,0,0,1-8.65-8l23.46-48.51a6.15,6.15,0,0,1,.5-10.37l7.93-4.58a6.2,6.2,0,0,1,7.29.83,6.11,6.11,0,0,1,1.35,7.19l-20.68,42.73,88.21-50.92a6.17,6.17,0,0,1,7.09,10.05l-69.75,59.21,120.19-69.4a6.18,6.18,0,0,1,7,10.14l-142.8,116.15L6177.58,587a6.18,6.18,0,0,1,6.76,10.32L5964,759.44l280.94-162.21a6.18,6.18,0,0,1,6.54,10.47L5995,781.76,6257.74,630a6.18,6.18,0,0,1,6.54,10.48L5978,834l113-65.25a6.18,6.18,0,0,1,6.62,10.42L5938,890.19,6078.69,809a6.18,6.18,0,0,1,6.6,10.43L5925.24,930.16l140.8-81.3a6.17,6.17,0,0,1,6.64,10.39L5900.33,979.86l151.75-87.63a6.18,6.18,0,0,1,6.8,10.3l-215.7,161.07,188.53-108.85a6.18,6.18,0,0,1,6.58,10.45l-164.37,112.88,144.75-83.58a6.18,6.18,0,0,1,6.78,10.31l-223.07,166.43,195-112.62a6.18,6.18,0,0,1,6.69,10.37L5800,1215.1,5980.22,1111a6.18,6.18,0,0,1,6.7,10.37l-208.6,149.44,184.86-106.74a6.18,6.18,0,0,1,6.58,10.46l-169.37,115,174.81-100.91a6.17,6.17,0,0,1,6.68,10.37l-238.68,170L6056,1188.49a6.18,6.18,0,0,1,6.48,10.53l-259.43,170,313-180.7a6.18,6.18,0,0,1,6.5,10.51l-350.63,231.41,419.31-242.09a6.18,6.18,0,0,1,6.48,10.53l-427.81,278.61,110.81-64a6.18,6.18,0,0,1,6.89,10.22l-185.68,144.81,157.82-91.12a6.17,6.17,0,0,1,7.2,9.94l-106.49,95.49,79.79-46.08a6.22,6.22,0,0,1,7.8,1.36,6.13,6.13,0,0,1,.05,7.9L5807.65,1595l16.47-9.51a6.18,6.18,0,0,1,6.18,10.71l-45.92,26.5a6.18,6.18,0,0,1-7.86-9.27l40.37-49.15-101.75,58.77a6.18,6.18,0,0,1-7.22-10l106.5-95.48-183.36,105.87A5.91,5.91,0,0,1,5628,1624.34Z" transform="translate(0 -28.19)"/><path class="cls-13" d="M6089.46,1302.61a6.36,6.36,0,0,1-3.4-11.74l341.42-215.49a6.36,6.36,0,1,1,6.79,10.76l-341.43,215.5A6.41,6.41,0,0,1,6089.46,1302.61Z" transform="translate(0 -28.19)"/><path class="cls-9" d="M6269.71,1853.57c-14.69,152-307.42,409.26-328.19,425.36-9.16,7.55-48.91,42.09-64.13,53.36,8.52.05,160-78.33,215.37-129.06,78.76-72.13,185.44-164.68,240.8-272.49,13.24-25.77,27.47-51.28,38.76-77.46Q6323.33,1853.6,6269.71,1853.57Z" transform="translate(0 -28.19)"/><path class="cls-14" d="M5309.92,1792.53l49.52-40.32,15.91-13.52,64-55.17c8.42-7.36,16.88-14.67,25.35-22-1347.91,28.89-3861,85.07-3861,85.07s-30.39,1.74-32.55,13.05c-.06,0-.23.09-.23.13,0,.21.1.37.1.6s-.09.38-.09.61c0,0,.17,0,.23.08,2.34,11.33,32.76,12.84,32.76,12.84s2187.63,38.53,3649.78,61.36l21.76-16.27C5287,1810.38,5298.44,1801.7,5309.92,1792.53Z" transform="translate(0 -28.19)"/><path class="cls-14" d="M6693.43,1747.64c.51-8,3-100.3-165.87-102.6-19-.24-39.15-.4-59.86-.55,0,0-440.65,6.27-794.18,12.84-7.72,5.64-15.41,11.23-23.45,17.27-45.34,34-91.64,71.32-131.48,103.61l-66.85,53.48-8.26,6.49c540.47,8.16,1021.92,14.63,1085.74,13.28C6698,1847.89,6694.06,1755.59,6693.43,1747.64Zm-199.54,34.2-57.82.23-16.16,0-101.27.37-56.89.23-168.25.61c-26.09.1-47.39-14.82-47.52-33.31s20.89-33.56,47-33.66l400.4-1.48c26.1-.09,47.41,14.83,47.55,33.32S6520,1781.76,6493.89,1781.84Z" transform="translate(0 -28.19)"/><path class="cls-9" d="M6418.4,1652.5c-.23-2.56-.5-5.35-.72-8-1.91-21.47-4.45-45.67-11.81-72.8-7.93-30.27-20.67-64.29-43.25-97.56a263.61,263.61,0,0,0-95.78-86.1c-40.34-22.06-86.84-33.21-134-36.65-47.26-3-95.68,1.68-143.67,12.89-48.14,10.77-95.78,28.42-142.71,50.62-11.62,6-23.21,11.41-35,18.07-10.94,6.21-21.31,11.5-33,18.59-23.16,13.52-45.41,27.35-67.57,42.25-73.49,48.76-143.66,106.74-213.49,167q-22.22,19.17-44.43,38.58-31.77,27.42-64.09,55.28l-16.2,13.77-16.14,13.22L5323,1809c-11.64,9.29-23.3,18.11-35,26.86-10.89,8.16-21.83,16.22-32.88,24.55-23.78,16.14-47,33.37-71.57,48.9a2255.43,2255.43,0,0,1-309.87,168.8A2659.39,2659.39,0,0,1,4540.73,2200c-56.35,16.08-112.67,30.87-168.86,43.19a1629.11,1629.11,0,0,1-167.23,29.52c-221.75,27.66-432.58,12.33-609.67-14.75-177.53-27.37-322.66-66.5-423.17-96.34-50.27-15-89.47-27.88-116.11-36.88s-40.8-14-40.8-14l40.44,15c26.42,9.67,65.3,23.5,115.23,39.81,99.88,32.36,244.22,75.25,422,107.26,177.33,31.65,389.36,52.63,615.54,30.2,56.66-5.52,113.74-14.37,170.89-25.12,57.35-10.37,115-23.21,172.78-37.42a2705.18,2705.18,0,0,0,343.61-111.54,2316.09,2316.09,0,0,0,324.75-161.56c26-15.11,50.69-32,75.93-47.87,24.55-17,49.89-34,73.3-51.34l34.61-26,5.86-4.45,11.84-9,17-13.4q33.62-26.9,66.74-53.39c44.81-36.31,88.62-71.44,132.09-104.07,41.43-31.1,82.59-60,124.05-85.28,21.13-13.08,42.6-25.29,63.13-36.3,9.94-5.64,21.93-11.27,32.64-16.82,9.88-5.14,20.61-9.71,30.76-14.48,41.41-17.77,82.79-31.33,122.82-38.72,79.89-16,154.29-7.57,201.21,20.75,47.7,27.33,68.14,72,77.28,113.09a298.57,298.57,0,0,1,6.11,44.41,368.21,368.21,0,0,1-1,57.47c-.18,2.91-.36,5.68-.53,8.24-.25,2-.48,3.67-.67,5.45-.14,1-.29,2.19-.41,3.17-.67,5.31-1.25,9.8-1.7,13.4-.92,7.21-2.27,24.09-2.27,24.09l126,.27s.34-3.75,1-11c.31-3.61.73-8.12,1.19-13.45q.38-4,.78-8.65c.12-2.62.25-5.48.37-8.33,0-1.11.1-2.08.15-3.23.26-8.2.78-17.46.86-27.41Q6418.85,1669.84,6418.4,1652.5Z" transform="translate(0 -28.19)"/><path class="cls-15" d="M1588.86,2241.1q0-69.39,41.13-137.49-47.55-30.2-47.55-89.31,0-71.33,63-126.57,70.66-62.31,182.47-62.33,51.4,0,110.51,14.78,13.5,3.22,115,49.79t145.85,46.58q29.55,0,44.33-16.7,7.71-8.36,7.71-18t-8.35-17.35q-4.5-6.42-4.5-8.36c0-1.28,1.18-1.92,3.53-1.92s6.43,3.75,12.21,11.24a41.92,41.92,0,0,1,8.67,26.34q0,15.11-20.24,28.92t-51.07,13.81q-48.2,0-149.71-46.58t-127.54-51.72q-26-5.15-59.43-5.15-133,0-209.46,86.1-9,9.63-21.2,38.87T1612,2032.27q0,37.28,26.34,57.83,33.4-48.81,79-77.75t92.51-28.91q57.84,0,57.83,45,0,54-63.28,117.26T1687.17,2209q-34.71,0-34.7-29.56a30.4,30.4,0,0,1,5.45-18q5.46-7.71,13.17-5.79l-1.28,14.78q0,9.65,29.55,9.64,43.7,0,92.2-45t58.79-88a68.18,68.18,0,0,0,2.57-17.35q0-28.9-36.94-28.91t-76.46,28.27q-39.52,28.28-74.21,74.54,2.57,1.29,19.92,5.14l38.55,1.28q28.26,1.29,28.27,6.43,0,9-27,9h-3.86q-39.21,0-64.25-9.63-49.49,75.81-49.48,139.42,0,82.23,63.61,82.25,72,0,149.71-100.23l125.93-187.62q70.66-102.78,122.71-105.37l24.42,5.79q11.57,6.43,11.57,19.27t-6.43,12.86l-20.56-3.22q-44.34,0-113.72,95.73L1836.86,2253.3Q1754.62,2349,1679.44,2349q-51.4,0-71-27.63T1588.86,2241.1Z" transform="translate(0 -28.19)"/><path class="cls-15" d="M2147.85,2281.58q-37.91,0-37.91-44.33,0-25.07,17.67-55.58T2171,2110q-82.26,41.11-149.07,121.43-37.28,55.9-43.69,55.91-18.63,0-18.63-10.93,0-5.78,7.71-20.56,62.31-111.15,94.44-162.55,76.46-122.73,107.94-133a5.65,5.65,0,0,1,2.57-.64q8.36,0,11.57,13.49-1.93,13.48-66.83,97.66-67.47,85.45-76.46,111.79,23.76-17.36,82.89-58.47,63.61-44.34,84.17-44.34t20.56,16.07a13.23,13.23,0,0,1-.32,3.54q-.33,1-44.66,60.71t-44.33,88q0,14.79,10.92,14.78,34.69-1.28,104.08-83.53,5.79-5.79,8.67-5.78t2.89,3.85q0,12.86-63.61,69.4Q2162,2281.59,2147.85,2281.58Z" transform="translate(0 -28.19)"/><path class="cls-15" d="M2269.93,2292.51a40.55,40.55,0,0,1-12.85-1.93Q2216,2279,2216,2244.32q0-45,56.55-104.09T2374,2081.12q14.77,0,24.09,8t9.31,19.6q0,36-54.29,68.75t-88.34,32.77a28.11,28.11,0,0,1-9-1.29,74.41,74.41,0,0,0-9.64,36.63q0,33.42,31.8,33.41t82.57-43.05q39.18-31.47,66.82-66.82c3.86-5.14,7.17-7.71,10-7.71s4.17,1.28,4.17,3.85-1.72,6.22-5.14,10.92a394.69,394.69,0,0,1-83.53,81Q2304,2292.52,2269.93,2292.51Zm121.43-185.05q0-7.71-16.38-7.71t-46.58,25.06q-40.49,33.42-63,70a26.14,26.14,0,0,0,8.35,1.28q24.41,0,65.22-26t51.07-56.86A16,16,0,0,0,2391.36,2107.46Z" transform="translate(0 -28.19)"/><path class="cls-15" d="M2936.2,2266.8q0,43,43.05,43.06,57.84,0,139.43-83.54,73.88-74.52,112.76-152t38.87-117.91a66,66,0,0,0-1.29-12.85q-14.14,0-28.91-14.78v.65q-9.65-7.71-9.64-15.74a16.12,16.12,0,0,1,6.43-13.17q6.42-5.13,16.7-5.14t14.45,8a58.08,58.08,0,0,0,10.6,14.45q6.42,6.43,5.79,9c2.57,3.85,6.52,5.78,11.88,5.78s11.45-2.57,18.31-7.71,12.3-7.71,16.38-7.71,6.09,1.28,6.09,3.85q0,7.08-12.2,13.5a27.17,27.17,0,0,1-15.43,5.78h-20.56q7.71,26.36,7.71,37.91,0,51.4-49.15,133.64T3121.22,2257.8q-77.74,65.53-141,65.54t-63.28-61.69q0-48.81,41.12-139.42l46.26-100.87-63,48.83q-29.57,24.43-60.07,53.65T2774.9,2244.32l-74.53,91.23q-18,20.55-32.13,20.56-10.93,0-10.92-14.14t11.56-36.62l124-178.62q112.44-165.12,112.44-209.46,0-24.4-45-24.42-54.62,0-152.27,66.83-52.68,36-92.52,90.27t-39.84,90q0,35.65,47.55,35.65,44.34,0,91.23-41.12,16.7-14.13,19.28-14.14c1.71,0,2.35,1.51,1.93,4.5q-7.08,24.42-52.37,46.58t-80,22.16c-6,0-10.07-.2-12.21-.64h-.64q-51.4-10.91-51.4-50.76t44.33-95.73q78.39-98.92,201.75-147.13,63.61-24.42,104.73-24.42,50.74,0,50.76,33.41,0,69.4-174.76,301.34-58.47,77.74-59.12,77.75,1.93,0,67.14-72.61t123.69-124q22.48-19.92,77.75-73.25a459.58,459.58,0,0,1,62.33-48.84q8.34-5.13,24.09-5.14t21.52,9q-59.13,73.24-103.13,164.16T2936.2,2266.8Z" transform="translate(0 -28.19)"/><path class="cls-15" d="M3291.51,2292.51a40.64,40.64,0,0,1-12.85-1.93q-41.11-11.57-41.12-46.26,0-45,56.54-104.09t101.52-59.11q14.76,0,24.09,8t9.31,19.6q0,36-54.29,68.75t-88.35,32.77a28,28,0,0,1-9-1.29,74.3,74.3,0,0,0-9.64,36.63q0,33.42,31.8,33.41t82.56-43.05q39.19-31.47,66.83-66.82,5.77-7.71,9.95-7.71t4.17,3.85c0,2.57-1.72,6.22-5.14,10.92a394.69,394.69,0,0,1-83.53,81Q3325.58,2292.52,3291.51,2292.51Zm121.43-185.05q0-7.71-16.38-7.71T3350,2124.81q-40.47,33.42-63,70a26.21,26.21,0,0,0,8.36,1.28q24.4,0,65.21-26t51.08-56.86A15.79,15.79,0,0,0,3412.94,2107.46Z" transform="translate(0 -28.19)"/><path class="cls-15" d="M3637.82,2092l9-1.93q7.07,0,13.5,5.79c4.28,3.85,6.42,6.86,6.42,9s-13.28,22.81-39.84,62-39.83,66.5-39.83,81.92a11.84,11.84,0,0,0,.64,3.86q3.2,14.77,14.13,14.78,33.42,0,122.08-110.51a5.55,5.55,0,0,1,4.5-2.57c1.71,0,2.57,1.6,2.57,4.82s-1.93,7.39-5.79,12.53q-82.24,109.88-125.28,109.86a31,31,0,0,1-10.93-1.92q-28.28-10.92-28.27-42.41a94.83,94.83,0,0,1,2.57-21.85L3523.44,2254q-37.91,33.42-54.93,33.42t-32.44-10.93q-17.36-12.84-17.35-34.05,0-46.89,65.54-112.12t120.14-65.22q21.21,0,28.28,14.78c1.28,3.43,2.35,6.33,3.21,8.67S3637.39,2092,3637.82,2092ZM3445.7,2250.1q0,23.13,16.07,23.13,37.26,0,101.51-81.59l68.11-93.81q-5.14-9-16.7-9-39.21,0-104.09,60.71T3445.7,2250.1Z" transform="translate(0 -28.19)"/><path class="cls-15" d="M3863.33,2031.65q19.27,0,32.77,12.85t13.5,36q0,50.75-84.18,127.21-71.33,64.25-115,78.39-7.08,0-18.64-7.71t-11.56-14.14q0-14.13,30.84-95.73t42.41-91.24q2.57-2.57,8.35-2.57t12.21,6.1a21.8,21.8,0,0,1,7.07,14.45q0,.66-31.81,74.54t-29.87,88q27.63-8.36,98.63-67.47t71-106q0-28.26-28.27-41.12-4.5-1.93-4.5-5.79Q3856.26,2031.66,3863.33,2031.65Z" transform="translate(0 -28.19)"/><path class="cls-15" d="M3914.73,2292.51a40.55,40.55,0,0,1-12.85-1.93q-41.13-11.57-41.13-46.26,0-45,56.55-104.09t101.52-59.11q14.78,0,24.09,8t9.31,19.6q0,36-54.29,68.75t-88.34,32.77a28.11,28.11,0,0,1-9-1.29,74.3,74.3,0,0,0-9.64,36.63q0,33.42,31.8,33.41t82.57-43.05q39.18-31.47,66.82-66.82c3.86-5.14,7.17-7.71,10-7.71s4.17,1.28,4.17,3.85-1.72,6.22-5.14,10.92a394.69,394.69,0,0,1-83.53,81Q3948.77,2292.52,3914.73,2292.51Zm121.44-185.05q0-7.71-16.38-7.71t-46.58,25.06q-40.49,33.42-63,70a26.14,26.14,0,0,0,8.35,1.28q24.4,0,65.22-26t51.07-56.86A16,16,0,0,0,4036.17,2107.46Z" transform="translate(0 -28.19)"/><path class="cls-15" d="M4178.15,2287.37q-48.19,0-48.19-53.34,0-27,14.14-59.11t30.84-54a44,44,0,0,1-8.35.64q-15.42,0-25.71-21.85l-47.54,61.69q-39.86,49.47-46.27,49.47c-2.13,0-3.21-.85-3.21-2.57q0-6.42,10.92-18.63,55.91-64.89,79-109.87,14.76-55.9,37.26-55.9,14.78,0,14.78,12.85t-16.06,32.77l-15.42,20.56q0,13.5,19.92,13.5,11.56,0,25.7-8.36l16.71-10.28c.85-.42,3-.64,6.42-.64s7.07,2.15,10.92,6.43,5.14,8.14,3.86,11.56l-44.34,55.9q-41.13,52.7-41.12,83.21t28.27,30.51q29.55,0,72.61-31.48a311.22,311.22,0,0,0,46.91-41.77q19.91-23.13,21.84-23.13c3,0,4.5,1.6,4.5,4.83s-1.93,7-5.78,11.24l-20.56,23.13a380.64,380.64,0,0,1-38.56,34.7Q4210.92,2287.36,4178.15,2287.37Z" transform="translate(0 -28.19)"/></g></svg>