<svg xmlns="http://www.w3.org/2000/svg" xmlns:xlink="http://www.w3.org/1999/xlink" viewBox="0 0 119.08 96.19"><defs><style>.cls-1{isolation:isolate;}.cls-2{fill:url(#radial-gradient);}.cls-3{fill:url(#radial-gradient-2);}.cls-4{fill:url(#radial-gradient-3);}.cls-5{fill:url(#radial-gradient-4);}.cls-11,.cls-13,.cls-14,.cls-6{mix-blend-mode:multiply;}.cls-6{fill:url(#radial-gradient-5);}.cls-7{fill:url(#radial-gradient-6);}.cls-8{fill:url(#radial-gradient-7);}.cls-9{fill:url(#radial-gradient-8);}.cls-10{fill:url(#radial-gradient-9);}.cls-11{fill:url(#radial-gradient-10);}.cls-12{fill:url(#radial-gradient-11);}.cls-13{fill:url(#radial-gradient-12);}.cls-14{fill:url(#radial-gradient-13);}.cls-15{fill:url(#radial-gradient-14);}.cls-16{fill:url(#radial-gradient-15);}.cls-17{fill:url(#radial-gradient-16);}.cls-18{fill:url(#radial-gradient-17);}</style><radialGradient id="radial-gradient" cx="32.56" cy="2.79" r="35.78" gradientUnits="userSpaceOnUse"><stop offset="0" stop-color="#a115a4"/><stop offset="0.23" stop-color="#9714a0"/><stop offset="0.61" stop-color="#7d1195"/><stop offset="1" stop-color="#5c0d88"/></radialGradient><radialGradient id="radial-gradient-2" cx="25.43" cy="1.08" r="7.18" gradientUnits="userSpaceOnUse"><stop offset="0" stop-color="#fc956f"/><stop offset="1" stop-color="#be2d58"/></radialGradient><radialGradient id="radial-gradient-3" cx="39.21" cy="23.73" r="59.69" gradientUnits="userSpaceOnUse"><stop offset="0" stop-color="#594a81"/><stop offset="0.23" stop-color="#56487d"/><stop offset="0.47" stop-color="#4e4071"/><stop offset="0.72" stop-color="#40345c"/><stop offset="0.96" stop-color="#2c2340"/><stop offset="1" stop-color="#281f3a"/></radialGradient><radialGradient id="radial-gradient-4" cx="30.56" cy="21.49" r="58.55" xlink:href="#radial-gradient-2"/><radialGradient id="radial-gradient-5" cx="48" cy="57.29" r="31.46" gradientUnits="userSpaceOnUse"><stop offset="0" stop-color="#fdeef1"/><stop offset="0.33" stop-color="#fdeaee"/><stop offset="0.66" stop-color="#fddee4"/><stop offset="1" stop-color="#fdc9d3"/><stop offset="1" stop-color="#fdc9d3"/></radialGradient><radialGradient id="radial-gradient-6" cx="1052.6" cy="2.79" r="35.78" gradientTransform="matrix(-1, 0, 0, 1, 1139.12, 0)" xlink:href="#radial-gradient"/><radialGradient id="radial-gradient-7" cx="1045.47" cy="1.08" r="7.18" gradientTransform="matrix(-1, 0, 0, 1, 1139.12, 0)" xlink:href="#radial-gradient-2"/><radialGradient id="radial-gradient-8" cx="1059.25" cy="23.73" r="59.69" gradientTransform="matrix(-1, 0, 0, 1, 1139.12, 0)" xlink:href="#radial-gradient-3"/><radialGradient id="radial-gradient-9" cx="1050.6" cy="21.49" r="58.55" gradientTransform="matrix(-1, 0, 0, 1, 1139.12, 0)" xlink:href="#radial-gradient-2"/><radialGradient id="radial-gradient-10" cx="1068.04" cy="57.29" r="31.46" gradientTransform="matrix(-1, 0, 0, 1, 1139.12, 0)" xlink:href="#radial-gradient-5"/><radialGradient id="radial-gradient-11" cx="59.4" cy="-10.4" r="113.42" xlink:href="#radial-gradient-5"/><radialGradient id="radial-gradient-12" cx="43.02" cy="81.68" r="9.52" xlink:href="#radial-gradient-5"/><radialGradient id="radial-gradient-13" cx="1063.06" cy="81.68" r="9.52" gradientTransform="matrix(-1, 0, 0, 1, 1139.12, 0)" xlink:href="#radial-gradient-5"/><radialGradient id="radial-gradient-14" cx="60.66" cy="57.02" r="101.6" gradientUnits="userSpaceOnUse"><stop offset="0" stop-color="#fdeef1"/><stop offset="0.44" stop-color="#fdecef"/><stop offset="0.68" stop-color="#fde4e8"/><stop offset="0.88" stop-color="#fdd6dd"/><stop offset="1" stop-color="#fdc9d3"/></radialGradient><radialGradient id="radial-gradient-15" cx="60.06" cy="91.78" r="93.57" gradientUnits="userSpaceOnUse"><stop offset="0" stop-color="#a115a4"/><stop offset="0.05" stop-color="#9914a1"/><stop offset="0.28" stop-color="#7f1196"/><stop offset="0.52" stop-color="#6b0f8e"/><stop offset="0.75" stop-color="#600d8a"/><stop offset="1" stop-color="#5c0d88"/></radialGradient><radialGradient id="radial-gradient-16" cx="73.34" cy="46.22" r="34.24" gradientTransform="translate(-202.49 14.68) scale(3.89 0.76)" xlink:href="#radial-gradient-2"/><radialGradient id="radial-gradient-17" cx="1077.31" cy="46.22" r="34.24" gradientTransform="matrix(-3.89, 0, 0, 0.76, 4229.56, 14.68)" xlink:href="#radial-gradient-2"/></defs><g class="cls-1"><g id="Layer_2" data-name="Layer 2"><g id="OBJECTS"><polygon class="cls-2" points="16.09 26.92 23.3 5.31 24.34 5.6 19.22 27.8 16.09 26.92"/><circle class="cls-3" cx="23.96" cy="4.4" r="4.4"/><path class="cls-4" d="M23.92,77.4,8.74,75.78A9.77,9.77,0,0,1,.21,64.07L6.7,33a10.33,10.33,0,0,1,10.11-8.22H31.14Z"/><path class="cls-5" d="M10.09,75.92c-.42-10.16.3-30.48,10-51.19H17.42C8.13,45.24,7.3,65.22,7.69,75.61a8.84,8.84,0,0,0,1,.17Z"/><path class="cls-6" d="M23.92,77.4,26,62l-3.24.37a51,51,0,0,1-11.38.41,17.23,17.23,0,0,1-10-4.32L.21,64.07A9.77,9.77,0,0,0,8.74,75.78Z"/><polygon class="cls-7" points="102.99 26.92 95.78 5.31 94.73 5.6 99.86 27.8 102.99 26.92"/><circle class="cls-8" cx="95.12" cy="4.4" r="4.4"/><path class="cls-9" d="M95.16,77.4l15.18-1.62a9.77,9.77,0,0,0,8.53-11.71L112.38,33a10.33,10.33,0,0,0-10.11-8.22H87.94Z"/><path class="cls-10" d="M109,75.92c.42-10.16-.29-30.48-10-51.19h2.64c9.29,20.51,10.11,40.49,9.73,50.88a8.84,8.84,0,0,1-1,.17Z"/><path class="cls-11" d="M95.16,77.4,93.05,62l3.25.37a51,51,0,0,0,11.38.41,17.2,17.2,0,0,0,10-4.32l1.17,5.59a9.77,9.77,0,0,1-8.53,11.71Z"/><path class="cls-12" d="M59.54,4.4C23.13,4.4,9.16,48.94,14.9,73S59.54,96.19,59.54,96.19s38.91.89,44.64-23.18S96,4.4,59.54,4.4Z"/><path class="cls-13" d="M46.35,84.79,36.11,92.66c.63.2,1.25.4,1.87.58l9.86-7.58,2.09-15.31-1.59-.22Z"/><path class="cls-14" d="M72.73,84.79,83,92.66c-.62.2-1.24.4-1.87.58l-9.86-7.58L69.15,70.35l1.58-.22Z"/><path class="cls-15" d="M101.68,37.15c-6.79-1.74-23.34,3.17-42.14,3.17S24.19,35.41,17.4,37.15s-14,24.85,0,34.74,42.14,8.74,42.14,8.74,28.16,1.16,42.14-8.74S108.47,38.9,101.68,37.15Z"/><path class="cls-16" d="M62.31,77.47c-1.65,0-2.63,0-2.64,0h-.26s-1,0-2.64,0c-6.09,0-26.8-.59-37.52-8.18-8-5.66-6.79-15.94-6.23-19,1.13-6.12,3.92-9.76,5.17-10.08A12.43,12.43,0,0,1,21.11,40a105.82,105.82,0,0,1,12.61,1.31,187.1,187.1,0,0,0,25.82,2.24,186.8,186.8,0,0,0,25.81-2.24A106,106,0,0,1,98,40a12.37,12.37,0,0,1,2.92.28c1.25.32,4.05,4,5.18,10.08.55,3,1.75,13.3-6.23,19-10.72,7.59-31.43,8.18-37.52,8.18Z"/><ellipse class="cls-17" cx="82.58" cy="59.12" rx="13.21" ry="6.68"/><ellipse class="cls-18" cx="38.94" cy="59.12" rx="13.21" ry="6.68"/></g></g></g></svg>