<?xml version="1.0" encoding="utf-8"?>
<!-- Generator: Adobe Illustrator 26.0.1, SVG Export Plug-In . SVG Version: 6.00 Build 0)  -->
<svg version="1.1" id="Layer_1" xmlns="http://www.w3.org/2000/svg" xmlns:xlink="http://www.w3.org/1999/xlink" x="0px" y="0px"
	 viewBox="0 0 6820.8 2799.8" style="enable-background:new 0 0 6820.8 2799.8;" xml:space="preserve">
<style type="text/css">
	.st0{fill:#FFFFFF;enable-background:new    ;}
	.st1{fill:#B7091E;}
	.st2{fill:#B7091E;stroke:#B7091E;stroke-width:3;stroke-miterlimit:10;}
	.st3{opacity:0.7;fill:#FF8603;enable-background:new    ;}
	.st4{fill:#FF8603;}
	.st5{opacity:0.7;fill:#038CD8;enable-background:new    ;}
	.st6{fill:#038CD8;}
	.st7{opacity:0.7;fill:#FFD400;enable-background:new    ;}
	.st8{fill:#FFD400;}
	.st9{opacity:0.7;fill:#2E753B;enable-background:new    ;}
	.st10{fill:#2E753B;}
	.st11{opacity:0.7;fill:#034EA1;enable-background:new    ;}
	.st12{fill:#034EA1;}
	.st13{fill:#552984;}
	.st14{fill:#3F3F3F;}
</style>
<path class="st0" d="M1399.9,0h4021.1c773.1,0,1399.9,626.7,1399.9,1399.9v0c0,773.1-626.7,1399.9-1399.9,1399.9H1399.9
	C626.7,2799.8,0,2173,0,1399.9v0C0,626.7,626.7,0,1399.9,0z"/>
<g id="Layer_1-2">
	<path class="st1" d="M1602.7,449.2c-11-14-28.3-22.5-48.5-23.9c-26.4-1.8-54.1,8.1-72.9,25.9c-31.8,30.1-42.3,74.5-50.8,110.2
		l-12.4,52.9c-14.2,3.4-28.5,6.2-42.9,8.5l-5.4,18c14.8-2,29.4-4.7,44-7.9l-267.1,1128.5c-30.8,130.1-69.1,292.1-176.8,401.5
		c-135,137.3-379.1,165.3-544,62.4s-237.2-328.1-161.1-502.1c1.8-4.3-0.2-9.2-4.5-11c-0.1,0-0.2-0.1-0.3-0.1
		c-4.5-1.9-9.6,0.1-11.7,4.5c-79.2,181.2-4,415.8,167.9,523c69.9,43.5,153.4,64.6,237.3,64.6c122.5,0,245.9-44.7,329.3-129.5
		c111.1-112.9,150-277.4,181.2-409.5l269-1137c35.5-9.3,69.9-22.6,102.4-39.7c33.2-17.4,70.3-51.6,78.5-88.4
		C1618.1,481.4,1614.2,463.8,1602.7,449.2z M1596.5,496.5c-7,31.3-41.1,61.9-69.7,77c-28.5,14.9-58.4,26.9-89.3,35.7l10.3-43.9
		c7.9-33.5,17.8-75.3,46-101.9c13.8-13.1,34.6-21.2,54.2-21.2c1.6,0,3.2,0.1,4.8,0.2c10.7,0.8,25.6,4.4,35.6,17.2
		C1596.9,470.2,1599.6,482.6,1596.5,496.5z"/>
	<path class="st1" d="M653.4,2320.1c-90.5,0-175.4-23.1-245.8-66.9c-178.2-111.2-256.3-354.8-174-542.9c5.6-12.6,20.4-18.3,33-12.6
		c5.8,2.6,10.4,7.3,12.9,13.2c2.5,6,2.4,12.8-0.2,18.8c-73.1,167-3.6,383.3,154.9,482.1c159,99.2,394.1,72.2,524.2-60.1
		c104.5-106.2,142.2-265.6,172.5-393.7l261.4-1104.6c-6.8,1.2-13.7,2.3-20.6,3.2l-24.6,3.4l15.5-51.5l9.9-1.5
		c10.8-1.7,21.5-3.7,32.1-6l10.2-43.2c9-37.8,20.1-84.7,55.3-118.1c21.9-20.7,54.4-32.3,85-30.2c24.8,1.7,46.1,12.3,60,29.9l0,0
		c14.4,18.3,19.4,41.1,14.2,64.2c-10,44.7-52.9,81.3-86.7,99c-30.7,16.1-63.1,29-96.5,38.5l-266.9,1127.7
		c-31.7,134.1-71.2,301-185.4,417C910.1,2271.1,785.9,2320.1,653.4,2320.1z M1548,458.1c-15.6,0-32.5,6.6-43.2,16.8
		c-24.7,23.4-34,62.6-41.4,94l-3.9,16.5c20.6-7.2,40.6-15.9,59.9-26.1c26.3-13.9,55.9-41.1,61.6-66.4c2-9.2,0.4-16.7-5-23.5
		c-5.2-6.7-13.4-10.5-24.3-11.2C1550.6,458.2,1549.3,458.1,1548,458.1z"/>
	<path class="st1" d="M1365.7,593.3l-4.5,15.1l-2,6.7l-3.4,11.3l-5.3,17.6l-5.3,17.7l-7.3,24.3l-300.4,1000l-21.3,71l-64.7,215
		l49.1-218.8l16.1-72.1l228-1017.5l0.3-1.6l3.7-16.9c10.2,0.8,20.2,1.4,30.4,1.6c-1.1,6-1.9,11.7-2.4,17c-0.3,2.6-0.4,5-0.6,7.4
		c-0.3,4.9-0.2,9.9,0.2,14.8c0.2,1.7,0.4,3.3,0.7,4.8s0.6,2.8,1,4.1c1.3,4.3,3.4,6.9,6.1,7.6c0.4,0.1,0.8,0.2,1.2,0.2
		c6.1,0,13.7-9.3,21.1-24.1c2.2-4.4,4.4-9.5,6.4-14.8s4.1-11.2,6-17.3c1-3.2,2-6.6,2.8-10c0.6-2.4,1.2-4.8,1.8-7.2
		c1.4-6,2.6-11.9,3.5-17.4c0.3-1.5,0.4-2.8,0.6-4.2c0.4-3.2,0.8-6.3,1-9.3c0.3-2.2,0.4-4.3,0.5-6.4v-2c0.1-2,0.1-4,0.1-5.9
		c0-0.6,0-1.2-0.1-1.8c-0.4-12-3.1-19.8-8-21c-0.4-0.1-0.8-0.1-1.2-0.2c-7.8,0-18.3,15.4-27.2,38.2c-1.7,4.3-3.3,8.9-4.9,13.7
		c-10.4-0.1-20.8-0.5-31.3-1.3l4.4-20l5-22.3c0.3-1.2,0.6-2.4,0.9-3.5c9.7-36.4,39.6-61,67.2-54.4h0.2c0.1,0,0.1,0,0.2,0.1
		C1362.7,518.4,1377,555.7,1365.7,593.3z"/>
	<path class="st1" d="M953.2,1972.6l-3.3-0.9l65.2-290.9l228.4-1019.1l4.1-18.4l1.5,0.1c9.7,0.8,19.6,1.3,30.3,1.6h2l-0.3,2
		c-1,5.8-1.8,11.5-2.4,16.8c-0.2,2.5-0.4,4.9-0.6,7.2c-0.3,4.9-0.2,9.8,0.1,14.7c0.2,1.6,0.4,3.2,0.7,4.6s0.6,2.7,1,3.9
		c0.8,2.5,2.3,5.8,4.8,6.4c0.3,0.1,0.5,0.1,0.8,0.1c5,0,12.3-8.7,19.6-23.1c2.1-4.1,4.2-9,6.3-14.7c2-5,3.9-10.6,5.9-17.2
		c1-3.2,1.9-6.5,2.8-9.9c0.6-2.4,1.2-4.8,1.8-7.1c1.4-5.8,2.5-11.6,3.5-17.3c0.3-1.5,0.4-2.8,0.6-4.1c0.5-3.8,0.8-6.6,1-9.2
		c0.2-1.5,0.3-2.9,0.4-4.2l0.2-2.2v-1.9c0.1-2.1,0.1-4,0.1-5.9c0-0.5,0-1-0.1-1.5c-0.4-11.4-3-18.7-6.7-19.6
		c-0.3-0.1-0.6-0.1-0.8-0.1c-5.6,0-15.6,11.5-25.7,37.1c-1.8,4.6-3.5,9.4-4.9,13.6l-0.4,1.2h-1.2c-10.4-0.1-21-0.5-31.4-1.3l-2-0.2
		l9.9-44.2c0.2-0.7,0.4-1.4,0.5-2.1l0.4-1.4c10-37.4,41-62.4,69.3-55.7h0.7l0.2,0.2c11.3,2.9,20.8,10.5,27.3,21.9
		c9.7,16.9,11.5,40,4.9,62L953.2,1972.6z M1250.2,647l-3.8,17.1l-228,1017.5l-54.7,244.3l72.2-240.2l307.7-1024.4l20.6-68.4
		c6.3-21.1,4.6-43.3-4.6-59.3c-6.2-10.8-15-17.8-25.6-20.4l-0.4-0.1c-26.4-6.3-55.7,17.6-65.2,53.2l-0.4,1.4c-0.2,0.7-0.4,1.3-0.5,2
		l-9,40.3c9.3,0.6,18.7,1,27.9,1.1c1.3-3.9,2.9-8.4,4.5-12.6c10.2-26,21.8-40.8,30.2-39.1c5.8,1.4,9.1,9.2,9.6,22.7
		c0.1,0.6,0.1,1.2,0.1,1.9c0,1.9,0,3.9-0.1,6v2l-0.2,2.3c-0.1,1.4-0.2,2.8-0.4,4.3c-0.2,2.6-0.4,5.5-1,9.3c-0.2,1.4-0.4,2.8-0.6,4.3
		c-0.9,5.8-2.1,11.7-3.5,17.5c-0.5,2.4-1.2,4.8-1.8,7.2c-0.9,3.5-1.9,6.8-2.9,10.1c-2.1,6.7-4,12.4-6,17.5c-2.2,5.7-4.4,10.8-6.5,15
		c-5.7,11.4-14.3,25-22.6,25c-0.5,0-0.9-0.1-1.4-0.2c-3.5-0.9-6-3.8-7.5-8.8c-0.4-1.4-0.8-2.8-1-4.3s-0.6-3.2-0.7-4.9
		c-0.4-5-0.4-10-0.2-15c0.2-2.6,0.4-5,0.6-7.5c0.5-4.8,1.2-9.9,2.1-15.2C1267.7,648.1,1258.8,647.7,1250.2,647L1250.2,647z"/>
	<path class="st2" d="M1323.4,628.2c-0.5,2.4-1.2,4.8-1.8,7.2c-0.9,3.4-1.9,6.8-2.8,10c-6.2,0.3-12.5,0.5-18.7,0.5
		c-1,0.1-1.9,0.1-2.8,0.1c-6,0-12-0.1-18.1-0.2c-10.2-0.2-20.2-0.8-30.4-1.6c-5.9-0.4-11.8-1-17.8-1.6
		C1091.8,627.3,958,562,872.3,455c-2.9-3.6-2.3-8.9,1.3-11.7c0.1-0.1,0.2-0.2,0.4-0.3c3.9-2.9,9.4-2.2,12.5,1.5
		c83.1,103.7,213.2,167.1,348.3,181.3c6,0.7,11.9,1.2,17.8,1.6c10.1,0.8,20.2,1.2,30.3,1.5c6.1,0.1,12.2,0.1,18.3,0
		c1.2,0,2.5,0,3.8-0.1C1311.1,628.8,1317.2,628.5,1323.4,628.2z"/>
	<path class="st2" d="M1297.2,659.6c-6,0-12.2-0.1-18.3-0.2c-11.1-0.3-21.3-0.8-31.3-1.7c-5.8-0.4-11.8-1-17.8-1.6
		c-149.1-16.3-283.2-86.5-368.2-192.6c-7.6-9.5-6-23.3,3.5-30.9c0.2-0.2,0.5-0.4,0.7-0.6c9.4-7.2,23.5-5.5,31.2,3.8
		c78.2,97.7,201.8,161.9,339.2,176.4c5.3,0.6,10.8,1.1,17.4,1.6c8.8,0.7,18.5,1.1,29.6,1.4c5.8,0.1,11.8,0.1,17.8,0
		c1.2,0,2.1,0,3.2-0.1h0.7c5.3-0.1,11.2-0.3,17.9-0.7l18-1l-3.9,17.6c-0.6,2.5-1.2,5.1-1.9,7.6c-0.9,3.6-2,7.1-3,10.5l-2.8,9.2
		l-9.6,0.5c-6.3,0.3-12.7,0.5-18.9,0.5C1299.4,659.6,1298.4,659.6,1297.2,659.6z"/>
	<path class="st3" d="M2025.2,1666.8c-178.5,0-317.7-48.5-413.6-144.1c-95.8-95.4-144.3-234.2-144.3-412.2S1515.9,794.3,1612,700
		s235.7-142.2,414.8-142.2S2344.9,606,2440,701.2c95,95,143.2,233.2,143.2,410.8c0,177.1-48.6,315.3-144.4,410.8
		C2342.9,1618.4,2203.7,1666.8,2025.2,1666.8z M2026.8,570.1c-175.2,0-311.5,46.5-405,138.3s-141.2,227.2-141.2,402.1
		s47.4,310.8,140.8,403.9s229.2,140.1,403.8,140.1s310.5-47.2,403.8-140.1s140.8-228.5,140.8-402.4c0-174.4-47-309.8-139.6-402.5
		S2201.9,570.1,2026.8,570.1L2026.8,570.1z M2025.2,1477.3c-99.4,0-175.4-31.2-225.6-92.8c-49.8-61.1-75-152.8-75-272.6
		s25.5-211.7,75.8-273c50.8-61.8,126.9-93.2,226.4-93.2c198.4,0,299,123.2,299,366.2C2325.8,1354.4,2224.6,1477.4,2025.2,1477.3
		L2025.2,1477.3z M2026.8,758.1c-95,0-167.6,29.7-215.7,88.3c-48.5,59.1-73.1,148.5-73.1,265.5s24.3,206.3,72.3,265.2
		c47.5,58.3,119.8,87.9,214.8,87.9c193.2,0,287.2-115.5,287.2-353.1C2312.4,873.9,2218.9,758.1,2026.8,758.1L2026.8,758.1z"/>
	<path class="st4" d="M2207.4,1424.2c-3.6,0-6.4-2.9-6.4-6.5c0-2.1,1-4.1,2.7-5.3l249.7-176.1l-172.6,99.6c-3.1,1.8-7,0.8-8.8-2.3
		c-1.7-2.8-0.9-6.5,1.7-8.4l219.6-168.5l-186,107.3c-3.1,1.8-7,0.8-8.8-2.3c-1.6-2.8-0.9-6.4,1.6-8.4l196.7-154.1l-178.8,103.2
		c-3.1,1.8-7,0.7-8.8-2.3c-1.6-2.8-0.9-6.4,1.7-8.3l174.7-133.8l-164,94.7c-2.9,1.7-6.7,0.8-8.6-2c-1.9-2.8-1.2-6.6,1.5-8.7
		l158-118.6l-149.6,86.4c-3.1,1.8-7,0.8-8.8-2.3c-1.6-2.8-1-6.4,1.6-8.4l160.5-125.6l-155.6,89.8c-3.1,1.8-7,0.8-8.8-2.3
		c-1.7-2.8-0.9-6.5,1.7-8.5l139.2-104.2l-135.7,78.3c-3.1,1.8-7,0.7-8.8-2.3c-1.6-2.8-0.9-6.4,1.7-8.4l138.1-105.7l-137,79.1
		c-3.1,1.8-7,0.8-8.8-2.3c-1.6-2.7-1-6.2,1.4-8.2l148.3-125.1l-153.5,88.7c-3.1,1.8-7,0.7-8.8-2.3c-1.6-2.7-1-6.1,1.4-8.1
		l138.6-118.1l-148.3,85.6c-3.1,1.8-7,0.7-8.8-2.4c-1.6-2.7-1-6.1,1.4-8.1l130.4-112.3l-145.3,83.9c-3.1,1.8-7,0.8-8.8-2.3
		c-1.6-2.7-1-6.2,1.5-8.2l121.4-101.7l-139.7,80.7c-3.1,1.8-7,0.8-8.8-2.3c-1.6-2.7-1-6.1,1.3-8.1l119.7-105.7l-149.7,86.4
		c-3.1,1.8-7,0.8-8.8-2.3c-1.6-2.7-1-6.1,1.4-8.2l115.8-99l-152,87.8c-3.1,1.8-7,0.7-8.8-2.4c-1.6-2.8-0.9-6.3,1.5-8.2l112.6-90.2
		l-152,87.8c-3.1,1.8-7,0.7-8.8-2.4c-1.5-2.6-1-5.9,1.2-7.9l125.4-117.1l-208.4,120.3c-3.1,1.8-7,0.8-8.8-2.3
		c-1.6-2.8-0.9-6.4,1.6-8.4l135.4-105.2l-235.8,136.2c-3,1.9-7,0.9-8.9-2.1s-0.9-7,2.1-8.9c0.1-0.1,0.2-0.1,0.3-0.2l317-183
		c3.1-1.8,7-0.8,8.8,2.3c1.6,2.8,0.9,6.4-1.6,8.4l-135.3,105.2l176-101.6c3.1-1.8,7-0.8,8.8,2.3c1.5,2.6,1,5.9-1.2,8l-125.4,117.1
		l176.7-102c3.1-1.8,7-0.8,8.8,2.3c1.6,2.8,1,6.4-1.6,8.3L2219.6,724l139-80.2c3.1-1.8,7-0.8,8.8,2.3c1.6,2.7,1,6.1-1.4,8.2
		l-115.8,99l144.8-83.6c3.1-1.8,7-0.8,8.8,2.3c1.6,2.7,1,6.1-1.3,8.1l-119.8,105.7l148.1-85.5c3.1-1.8,7-0.8,8.8,2.3
		c1.6,2.7,1,6.2-1.5,8.2l-121.4,101.7l140.6-81.2c3.1-1.8,7-0.7,8.8,2.4c1.5,2.7,0.9,6-1.4,8.1l-130.4,112.3l150-86.6
		c3.1-1.8,7-0.7,8.8,2.3c1.6,2.7,1,6.1-1.4,8.1l-138.7,118.1l155.2-89.6c3.1-1.8,7-0.8,8.8,2.3c1.6,2.7,1,6.2-1.4,8.2l-148.3,125.1
		l159.8-92.3c3.1-1.8,7-0.7,8.8,2.4c1.6,2.8,0.9,6.3-1.7,8.3l-138.1,105.7l143.6-82.9c3.1-1.7,7-0.7,8.8,2.4
		c1.6,2.8,0.9,6.3-1.7,8.3l-139.2,104.3l141.4-81.7c3.1-1.8,7-0.7,8.8,2.3c1.6,2.8,0.9,6.3-1.6,8.3L2395.8,1053l163.1-94.2
		c3.1-1.8,7-0.7,8.8,2.4c1.6,2.8,0.9,6.4-1.7,8.4l-158,118.5l156.8-90.5c3.1-1.8,7-0.8,8.8,2.3c1.7,2.8,1,6.5-1.7,8.4l-174.8,133.9
		l172.2-99.4c3.1-1.8,7-0.7,8.8,2.3c1.6,2.8,0.9,6.4-1.6,8.3l-196.7,154.1l192-110.8c3.1-1.8,7-0.8,8.8,2.3c1.7,2.8,0.9,6.4-1.7,8.4
		l-219.5,168.5l210.6-121.6c3.1-1.8,7-0.7,8.8,2.4c1.6,2.9,0.8,6.5-1.8,8.4l-249.7,176l239.2-138.1c3.1-1.8,7-0.7,8.8,2.4
		c1.8,3.1,0.7,7-2.4,8.8l-362.2,209.2C2209.7,1423.9,2208.6,1424.2,2207.4,1424.2z"/>
	<path class="st4" d="M2031.6,1665.9c-3.6,0-6.4-2.9-6.4-6.5c0-2.1,1-4.1,2.8-5.3l389.6-269l-477.5,275.7c-3,1.8-7,0.9-8.8-2.2
		s-0.9-7,2.2-8.8l0,0l405.3-261.3l-456.4,263.5c-3,1.9-7,1.1-8.9-1.9c-1.9-3-1.1-7,1.9-8.9l173.4-123.7l-214,123.6
		c-3.1,1.8-7,0.8-8.8-2.3c-1.6-2.7-1-6.1,1.4-8.1l138.1-119.1l-190.7,110.2c-3.1,1.8-7,0.8-8.8-2.3c-1.6-2.6-1-6,1.3-8.1l125-112.7
		l-171,98.7c-2.9,1.7-6.6,0.8-8.5-1.9c-1.9-2.8-1.4-6.5,1.3-8.6l113.9-92.2l-141.2,81.6c-3.1,1.8-7,0.7-8.8-2.4c-1.5-2.6-1-6,1.3-8
		l119.2-106.3l-150.8,87c-3.1,1.8-7,0.7-8.8-2.4c-1.5-2.6-1-5.9,1.2-7.9l123.5-113.6l-153.4,88.6c-3.1,1.8-7,0.8-8.8-2.3
		c-1.6-2.7-1-6.2,1.5-8.2l122.5-102.2l-141.6,81.8c-3.1,1.8-7,0.7-8.8-2.3c-1.6-2.7-1-6.2,1.5-8.2l128.8-106.7l-144.3,83.3
		c-3.1,1.8-7,0.8-8.8-2.3c-1.6-2.8-0.9-6.3,1.5-8.3l132.3-107l-145.3,83.9c-2.9,1.7-6.6,0.8-8.5-1.9c-1.9-2.8-1.4-6.5,1.2-8.6
		l141.9-115.1l-151.1,87.2c-3.1,1.8-7,0.7-8.8-2.4c-1.5-2.7-0.9-6.2,1.5-8.1l150.2-121l-157.8,91c-3.1,1.8-7,0.8-8.8-2.3
		c-1.7-2.8-0.9-6.5,1.7-8.5l140.7-105.5l-142.9,82.5c-3.1,1.8-7,0.7-8.8-2.4c-1.6-2.8-0.9-6.4,1.7-8.3l146.6-109.4l-147.5,85.1
		c-3.1,1.8-7,0.7-8.8-2.4c-1.6-2.8-0.9-6.4,1.7-8.4l157.2-117.7l-155.9,90c-3.1,1.7-7,0.6-8.8-2.5c-1.6-2.8-0.9-6.3,1.7-8.3
		l166.9-125.2l-164.3,94.8c-3.1,1.8-7,0.7-8.8-2.4c-1.6-2.8-0.9-6.3,1.7-8.3l183.8-139.4l-178.8,103.2c-3.1,1.8-7,0.8-8.8-2.3
		c-1.7-2.8-0.9-6.5,1.7-8.5l194.2-144l-187,108c-3,1.9-7,1-8.9-2c-1.8-3-1-6.8,1.9-8.8l207-147.6l-198,114.3c-3.1,1.7-7,0.5-8.7-2.6
		c-1.6-2.9-0.7-6.5,2.1-8.4l456.6-289l-445.1,257c-3,1.9-7,0.9-8.9-2.1s-0.9-7,2.1-8.9l468.3-309.1l-451.5,260.7
		c-3.1,1.8-7,0.8-8.8-2.2c-1.8-3-0.9-6.8,2-8.7L1896,657.2l-379.9,219.3c-3.1,1.8-7,0.8-8.8-2.3c-1.7-2.9-0.9-6.6,1.9-8.6
		l313.3-223.9L1555,796.3c-3.1,1.8-7,0.7-8.8-2.4c-1.5-2.6-1-6,1.3-8l148.8-130.1l-32.7,18.9c-3.1,1.8-7,0.7-8.8-2.4
		c-1.8-3.1-0.7-7,2.4-8.8l0,0l89.7-51.8c3.1-1.8,7-0.7,8.8,2.4c1.5,2.7,1,6-1.3,8l-148.8,130.2L1931,564.3c3-1.9,7-1.1,8.9,1.9
		c1.9,3,1.1,7-1.9,8.9L1624.6,799l413.9-239c3.1-1.7,7-0.6,8.8,2.5c1.6,2.9,0.8,6.5-1.9,8.4l-406.7,277.3L2127.4,566
		c3-1.9,7-0.9,8.9,2.1s0.9,7-2.1,8.9l-468.3,309.1l533.2-307.9c3.1-1.7,7-0.6,8.8,2.5c1.6,2.9,0.7,6.6-2.1,8.5l-456.5,289l40-23.1
		c3-1.9,7-1.1,8.9,1.9c1.9,3,1.1,7-1.9,8.9l0,0l-207,147.6l167.7-96.9c3.1-1.7,7-0.5,8.7,2.6c1.5,2.8,0.8,6.2-1.7,8.1l-194.2,144.1
		l170.4-98.4c3.1-1.8,7-0.8,8.8,2.3c1.7,2.8,0.9,6.5-1.7,8.4l-183.8,139.5l168.3-97.2c3-2,7-1.2,8.9,1.8c2,3,1.2,7-1.8,8.9l0,0
		L1572.2,1162l156.5-90.3c3.1-1.8,7-0.7,8.8,2.4c1.6,2.8,0.9,6.4-1.7,8.4l-157.2,117.8l148.9-86c3.1-1.8,7-0.7,8.8,2.4
		c1.6,2.8,0.9,6.4-1.7,8.3l-146.6,109.4l141.2-81.5c3.1-1.8,7-0.7,8.8,2.4c1.6,2.8,0.9,6.4-1.7,8.4l-140.7,105.4l136.8-78.9
		c3.1-1.8,7-0.7,8.8,2.4c1.5,2.7,0.9,6.2-1.5,8.2l-150.2,121l149.5-86.3c3.1-1.8,7-0.8,8.8,2.3c1.6,2.8,1,6.3-1.5,8.3l-141.9,115.1
		l145.9-84.2c3.1-1.8,7-0.7,8.8,2.3c1.6,2.7,0.9,6.2-1.5,8.2l-132.3,107l139.3-80.4c3.1-1.8,7-0.7,8.8,2.4c1.6,2.7,0.9,6.1-1.5,8.1
		l-128.8,106.7l140.6-81.2c3.1-1.8,7-0.8,8.8,2.3c1.6,2.7,1,6.2-1.5,8.2l-122.6,102.2l139-80.2c3.1-1.8,7-0.7,8.8,2.4
		c1.5,2.6,1,5.9-1.2,7.9l-123.5,113.6l154.7-89.3c3.1-1.8,7-0.7,8.8,2.4c1.5,2.6,1,6-1.3,8l-119.2,106.3l158-91.2
		c3-1.8,7-0.8,8.8,2.2c1.7,2.8,1,6.4-1.5,8.4l-114,92.2l152.8-88.2c3.1-1.8,7-0.7,8.8,2.4c1.5,2.6,1,6-1.3,8l-125,112.7l196.9-113.6
		c3.1-1.8,7-0.7,8.8,2.4c1.5,2.7,0.9,6-1.4,8l-138,119.1l271.1-156.5c3-1.9,7-1.1,8.9,1.9c1.9,3,1.1,7-1.9,8.9l0,0L1992,1573.9
		l568.1-328c3-1.9,7-0.9,8.9,2.1s0.9,7-2.1,8.9l-405.4,261.3l388.1-224c3.1-1.8,7-0.8,8.8,2.3c1.7,2.9,0.9,6.7-1.9,8.6l-389.6,269
		l358.2-206.9c3-1.9,7-0.9,8.8,2.1c1.8,3,1,6.8-1.9,8.7L2254,1570.9l236.2-136.4c3.1-1.8,7-0.7,8.8,2.4c1.5,2.7,1,6.1-1.4,8.1
		l-143.2,123l31.6-18.2c3.1-1.8,7-0.7,8.8,2.3c1.8,3.1,0.7,7-2.3,8.8l-91.4,52.8c-3.1,1.8-7,0.8-8.8-2.3c-1.6-2.7-1-6.2,1.4-8.2
		l143.2-123l-310.4,179.2c-3.1,1.8-7,0.8-8.8-2.2c-1.8-2.9-0.9-6.7,1.9-8.6l277.9-192.9l-362.7,209.4
		C2033.9,1665.6,2032.8,1665.9,2031.6,1665.9z"/>
	<path class="st5" d="M5493.1,1583.8h-230.3c-3.3,0.1-6.2-2.5-6.3-5.8v-426.8h-418.9V1578c-0.1,3.4-3,6-6.3,5.8h-231
		c-3.4,0.1-6.2-2.5-6.3-5.8V575.6c0.1-3.4,3-6,6.3-5.8h231c3.3-0.1,6.2,2.5,6.3,5.8v387.1h418.9V575.6c0.1-3.3,3-5.9,6.3-5.8h230.3
		c3.3-0.1,6.2,2.5,6.3,5.8V1578C5499.3,1581.3,5496.5,1583.9,5493.1,1583.8L5493.1,1583.8z M5269.1,1572.2h217.7V581.4h-217.6v387.1
		c-0.1,3.3-3,6-6.3,5.8h-431.5c-3.4,0.1-6.2-2.5-6.3-5.8c0,0,0,0,0,0V581.4h-218.4v990.8h218.4v-426.8c0.1-3.3,3-5.9,6.3-5.8
		c0,0,0,0,0,0h431.5c3.3-0.1,6.2,2.5,6.3,5.8c0,0,0,0,0,0L5269.1,1572.2z"/>
	<path class="st6" d="M5263.3,965.7c-3.3,0.1-6.1-2.5-6.2-5.8c-0.1-1.9,0.8-3.8,2.3-4.9l168.7-136l-161.9,93.5
		c-2.9,1.7-6.6,0.8-8.3-2.1c-1.6-2.7-0.9-6.1,1.6-7.9l157.2-121l-150.5,86.9c-2.9,1.7-6.6,0.8-8.3-2c-1.6-2.7-1-6.1,1.5-8
		l167.7-134.6l-161,92.9c-2.9,1.6-6.6,0.6-8.3-2.3c-1.5-2.6-0.8-6,1.6-7.8L5406,697.4l-139.9,80.8c-2.9,1.7-6.6,0.6-8.3-2.3
		c-1.5-2.6-0.8-5.8,1.5-7.7l164.5-130.2l-157.8,91.1c-2.9,1.7-6.6,0.7-8.3-2.2c-1.5-2.5-0.9-5.8,1.3-7.7l123.2-105.5L5266,680.9
		c-2.9,1.7-6.6,0.7-8.3-2.2c-1.3-2.2-1-5,0.6-6.9l61.1-73.7l-53.4,30.9c-2.9,1.6-6.6,0.6-8.3-2.3c-0.6-1.1-0.9-2.4-0.7-3.7l4.7-37.4
		c-3.3-0.7-5.4-3.9-4.7-7.1c0.3-1.7,1.4-3.2,2.9-4l6.1-3.5c2.9-1.6,6.6-0.6,8.3,2.3c0.6,1.1,0.9,2.4,0.7,3.7l-4.5,35.5l72.2-41.7
		c2.9-1.7,6.6-0.7,8.3,2.2c1.3,2.2,1,5-0.6,6.9l-61.1,73.7l143.8-83c2.9-1.7,6.6-0.8,8.3,2.1c1.5,2.6,1,5.9-1.3,7.8l-123.3,105.5
		l172.9-99.8c2.9-1.7,6.6-0.7,8.3,2.2c1.5,2.6,0.9,6-1.5,7.8l-164.5,130.2l157.8-91.1c2.9-1.7,6.6-0.7,8.3,2.2
		c1.5,2.7,0.8,6-1.6,7.9l-146.5,109.1l139.8-80.8c2.9-1.7,6.6-0.7,8.3,2.2c1.5,2.6,0.9,5.9-1.5,7.8l-167.7,134.5l160.9-92.9
		c2.9-1.7,6.6-0.6,8.3,2.3c1.5,2.6,0.8,5.9-1.5,7.8l-157.2,121l150.5-86.9c2.8-1.8,6.6-1,8.4,1.8c1.7,2.7,1.1,6.3-1.5,8.2
		l-168.7,136l161.9-93.5c3-1.6,6.6-0.4,8.2,2.5c1.5,2.8,0.6,6.3-2.1,8l-229.5,132.5C5265.4,965.4,5264.4,965.7,5263.3,965.7z"/>
	<path class="st6" d="M5303,1584c-3.3,0.1-6.1-2.6-6.1-5.9c0-1.9,0.8-3.7,2.3-4.8l136.9-114.7l-169.6,98c-2.9,1.6-6.6,0.6-8.3-2.3
		c-1.4-2.6-0.8-5.8,1.5-7.7l163.6-128.9l-156.8,90.6c-2.9,1.7-6.6,0.7-8.3-2.2c-1.6-2.7-0.9-6.1,1.6-7.9l150.1-113l-143.5,82.9
		c-3,1.6-6.6,0.4-8.2-2.5c-1.3-2.5-0.7-5.6,1.5-7.5l158.6-122.6l-151.9,87.7c-2.9,1.6-6.6,0.6-8.2-2.3c-1.4-2.6-0.8-5.8,1.5-7.7
		l160.8-125.4l-154.1,89c-2.9,1.7-6.6,0.7-8.3-2.2c-1.5-2.6-0.9-5.9,1.5-7.8l167.3-133.8l-160.5,92.7c-2.9,1.6-6.6,0.5-8.2-2.4
		c-1.4-2.5-0.8-5.7,1.5-7.6l161.3-125.9L5266,1279c-2.9,1.7-6.6,0.7-8.3-2.2c-1.5-2.6-0.9-5.9,1.5-7.8l163.4-128.5l-156.6,90.5
		c-2.9,1.6-6.6,0.6-8.3-2.3c-1.5-2.6-0.8-5.9,1.6-7.8l148.8-111.5l-142.2,82.1c-2.9,1.6-6.6,0.6-8.2-2.3c-1.4-2.6-0.8-5.8,1.5-7.7
		l163.8-129.1l-169.3,97.8c-2.9,1.6-6.6,0.5-8.2-2.4c-1.4-2.6-0.8-5.7,1.5-7.6l172.6-134.2l-249.9,144.3c-2.9,1.7-6.6,0.7-8.3-2.2
		c-1.6-2.7-0.9-6.1,1.6-7.9l244.2-182.5l-333.7,192.7c-2.9,1.6-6.6,0.6-8.3-2.3c-1.5-2.7-0.7-6.1,1.8-7.9l288.8-197l-359.1,207.3
		c-2.9,1.6-6.6,0.6-8.3-2.3c-1.4-2.6-0.9-5.8,1.4-7.7l158.4-128.1L4909,1150.5c-2.9,1.7-6.6,0.8-8.3-2.1c-1.6-2.7-0.9-6.1,1.7-8
		l154-114.8l-216.4,125c-2.9,1.7-6.6,0.8-8.3-2c-1.7-2.9-0.8-6.6,2-8.3c0.1,0,0.2-0.1,0.2-0.1l306.2-176.8c2.9-1.7,6.6-0.6,8.3,2.3
		c1.5,2.7,0.8,6-1.6,7.8l-154,114.8l216.5-125c2.8-1.8,6.6-1,8.4,1.8c1.7,2.7,1.1,6.3-1.5,8.2l-158.4,128.1l432.1-249.5
		c2.9-1.7,6.6-0.8,8.3,2.1c1.7,2.8,0.8,6.4-1.9,8.2l-288.8,197L5489.8,896c2.9-1.7,6.6-0.7,8.3,2.2c1.5,2.7,0.8,6-1.6,7.9
		l-244.2,182.4l237.5-137.2c2.9-1.6,6.6-0.5,8.2,2.4c1.4,2.6,0.8,5.7-1.5,7.6l-172.6,134.3l165.9-95.8c2.9-1.6,6.6-0.5,8.2,2.4
		c1.4,2.6,0.8,5.8-1.5,7.6l-163.9,129.1l157.1-90.7c2.9-1.7,6.6-0.7,8.3,2.1c1.6,2.7,0.9,6.1-1.6,7.9l-148.7,111.4l142.1-82.1
		c2.9-1.7,6.6-0.7,8.3,2.2c1.5,2.6,0.9,5.9-1.5,7.8l-163.4,128.6l156.6-90.4c2.9-1.6,6.6-0.5,8.2,2.4c1.4,2.6,0.8,5.8-1.5,7.6
		l-161.3,125.9l154.6-89.3c2.9-1.7,6.6-0.7,8.3,2.2c1.5,2.6,0.9,5.9-1.5,7.8l-167.3,133.8l160.5-92.7c2.9-1.6,6.6-0.6,8.2,2.3
		c1.4,2.6,0.8,5.8-1.5,7.7l-160.8,125.2l154.1-89c2.9-1.6,6.6-0.5,8.2,2.4c1.4,2.6,0.8,5.7-1.5,7.6L5338,1412.4l152-87.6
		c2.9-1.7,6.6-0.6,8.3,2.3c1.5,2.6,0.8,6-1.6,7.8l-150.1,112.9l143.5-82.8c2.9-1.7,6.6-0.6,8.3,2.3c1.5,2.6,0.8,5.9-1.5,7.7
		l-163.6,128.9l156.8-90.5c2.9-1.7,6.6-0.7,8.3,2.2c1.5,2.6,0.9,5.8-1.4,7.7L5360,1538l130-75c2.9-1.7,6.6-0.7,8.3,2.2
		c1.3,2.3,1,5.1-0.8,7.1l-73.6,80.7l66.1-38.2c2.9-1.7,6.6-0.7,8.3,2.2c1,1.7,1.1,3.7,0.3,5.4l-17.7,40.7l9.1-5.3
		c2.9-1.7,6.6-0.7,8.3,2.2c1.7,2.9,0.7,6.6-2.2,8.3l-25,14.5c-2.3,1.3-5.1,1-7.1-0.7c-2-1.7-2.6-4.5-1.5-6.9l17.7-40.7l-84,48.5
		c-2.9,1.7-6.6,0.7-8.3-2.2c-1.3-2.3-1-5.2,0.8-7.1l73.6-80.7l-156.3,90.3C5305.1,1583.7,5304.1,1584,5303,1584z"/>
	<path class="st6" d="M4626.1,1584c-3.3,0-6.1-2.7-6.1-6.1c0-1.8,0.8-3.5,2.2-4.7l150.4-125l-168.8,97.5c-2.9,1.7-6.6,0.7-8.3-2.2
		c-1.5-2.6-0.9-5.9,1.5-7.8l173-141.8l-166.1,95.9c-2.8,1.8-6.6,1-8.4-1.8c-1.7-2.7-1.1-6.3,1.5-8.2l169.8-137.1l-163.1,94.2
		c-2.9,1.6-6.6,0.5-8.2-2.5c-1.4-2.5-0.8-5.7,1.5-7.5l159.1-123l-152.4,88c-2.9,1.7-6.6,0.8-8.3-2.1c-1.6-2.6-0.9-6,1.5-7.9
		l167.4-133.7l-160.6,92.5c-2.9,1.7-6.6,0.7-8.3-2.1c-1.6-2.7-0.9-6.2,1.7-8l141.5-103.9l-134.8,77.8c-2.9,1.7-6.6,0.7-8.3-2.2
		c-1.6-2.8-0.8-6.3,1.9-8.1l336.5-223.3l-330.1,190.6c-2.9,1.7-6.6,0.7-8.3-2.2c-1.6-2.8-0.8-6.3,1.9-8.1l279.8-187.8l-273.3,157.8
		c-2.9,1.7-6.6,0.7-8.3-2.2c-1.6-2.7-0.8-6.1,1.7-7.9l245.3-176.1l-238.7,137.8c-2.9,1.7-6.6,0.8-8.3-2.1c-1.6-2.7-0.9-6.1,1.6-8
		l184.8-139.5l-178.1,102.8c-2.9,1.7-6.6,0.7-8.3-2.2c-1.6-2.7-0.9-6.1,1.7-7.9l143.2-105.6l-136.6,78.9c-2.9,1.6-6.6,0.6-8.2-2.4
		c-1.4-2.6-0.8-5.8,1.5-7.6l162.5-127.2l-155.8,90c-2.9,1.7-6.6,0.8-8.3-2c-1.6-2.7-1-6.1,1.5-8l168.9-135.7L4603.8,990
		c-2.9,1.6-6.6,0.6-8.3-2.3c-1.5-2.6-0.8-6,1.6-7.8l143-105.3l-136.3,78.7c-2.9,1.6-6.6,0.6-8.3-2.3c-1.5-2.6-0.8-5.9,1.6-7.8
		L4754,822.8l-150.2,86.8c-2.9,1.7-6.6,0.7-8.3-2.1c-1.5-2.6-0.9-5.9,1.4-7.8l172.3-140.8l-165.4,95.5c-2.8,1.6-6.3,0.8-8-1.9
		c-1.8-2.6-1.2-6.2,1.3-8.2l159.2-123.2l-152.5,88c-2.9,1.7-6.6,0.8-8.3-2.1c-1.6-2.7-0.9-6.1,1.7-8l145.7-108.2l-139.1,80.3
		c-2.9,1.7-6.6,0.6-8.3-2.3c-1.5-2.6-0.8-6,1.6-7.8l152.4-115.3l-145.7,84.1c-2.9,1.7-6.6,0.6-8.3-2.3c-1.5-2.6-0.8-5.9,1.5-7.7
		l123.2-97.4l-116.4,67.2c-2.9,1.7-6.6,0.7-8.3-2.2c-1.3-2.3-1-5.2,0.8-7.2l74.4-78.4l-67,38.7c-2.9,1.7-6.6,0.7-8.3-2.2
		c-0.6-1.1-0.9-2.4-0.8-3.6l5-49.3c-3.3-0.5-5.5-3.7-5-7c0.3-1.8,1.4-3.4,2.9-4.3l6.1-3.5c2.9-1.7,6.5-0.7,8.2,2.1
		c0.7,1.1,0.9,2.4,0.8,3.7l-4.8,47.6l93-53.7c2.9-1.7,6.6-0.7,8.3,2.2c1.4,2.3,1,5.3-0.9,7.2l-74.4,78.4l152.4-88
		c2.9-1.7,6.6-0.7,8.3,2.2c1.5,2.6,0.9,5.9-1.5,7.8l-123.3,97.4l158-91.2c2.9-1.7,6.6-0.6,8.3,2.3c1.5,2.6,0.8,6-1.6,7.8L4682.1,712
		l145.7-84.2c2.9-1.7,6.6-0.8,8.3,2.1c1.6,2.7,0.9,6.1-1.7,8l-145.6,108.2l139.1-80.3c2.9-1.6,6.6-0.6,8.2,2.4
		c1.4,2.6,0.8,5.8-1.5,7.6L4675.5,799l152.5-88.1c2.9-1.7,6.6-0.7,8.3,2.2c1.5,2.6,0.9,5.9-1.4,7.7l-172.2,140.8l165.5-95.5
		c2.9-1.7,6.6-0.7,8.3,2.2c1.5,2.6,0.8,6-1.6,7.8l-157,120.4l150.3-86.8c2.9-1.7,6.6-0.7,8.3,2.2c1.5,2.7,0.8,6-1.6,7.9
		l-142.9,105.3l136.4-78.7c2.8-1.8,6.6-0.9,8.4,1.9c1.7,2.7,1,6.2-1.5,8.1l-168.9,135.7l162.1-93.6c2.9-1.6,6.6-0.5,8.2,2.4
		c1.4,2.5,0.8,5.7-1.5,7.6l-162.6,127.2l155.8-90c2.9-1.7,6.6-0.7,8.3,2.2c1.5,2.7,0.8,6-1.6,7.9l-143.3,105.6l169.4-97.8
		c2.9-1.7,6.6-0.7,8.3,2.2c1.6,2.7,0.9,6.1-1.6,7.9L4683,1113.2l259.2-149.6c2.9-1.7,6.6-0.8,8.3,2.1c1.6,2.7,0.9,6.3-1.7,8.1
		l-245.2,176.1l322.8-186.4c2.8-1.8,6.6-0.9,8.3,1.9s0.9,6.6-1.9,8.3l0,0L4753,1161.5l343.2-198.1c2.8-1.8,6.6-0.9,8.3,2
		c1.8,2.8,0.9,6.6-2,8.3l0,0L4766,1197.1l61.9-35.8c2.9-1.7,6.6-0.7,8.3,2.2c1.5,2.7,0.8,6.1-1.7,7.9l-141.5,103.9l134.9-77.9
		c2.9-1.7,6.6-0.8,8.3,2c1.6,2.7,1,6.1-1.5,8l-167.4,133.7l160.6-92.8c2.9-1.7,6.6-0.6,8.3,2.3c1.5,2.6,0.8,5.9-1.5,7.8l-159.1,123
		l152.4-88c2.8-1.8,6.6-1,8.4,1.8c1.7,2.7,1.1,6.3-1.5,8.2L4665,1440.7l163.1-94.2c2.9-1.7,6.6-0.7,8.3,2.2c1.5,2.6,0.9,5.9-1.4,7.7
		l-173,141.8l166.2-95.9c2.9-1.7,6.6-0.7,8.3,2.2c1.5,2.6,0.9,5.8-1.4,7.7l-150.4,125l143.5-82.9c2.9-1.7,6.6-0.7,8.3,2.2
		c1.4,2.4,1,5.4-1,7.4l-86.5,84.8l79.3-45.8c2.9-1.7,6.6-0.7,8.3,2.2c1.1,1.9,1.1,4.3-0.1,6.2l-30,49.4l21.8-12.6
		c3-1.6,6.6-0.4,8.2,2.5c1.5,2.8,0.6,6.3-2.1,8l-42.3,24.4c-2.9,1.7-6.6,0.6-8.3-2.3c-1.1-1.9-1.1-4.3,0.1-6.1l30-49.3l-100.3,57.9
		c-2.9,1.7-6.6,0.7-8.3-2.2c-1.4-2.4-1-5.4,1-7.4l86.5-84.7l-163.6,94.4C4628.2,1583.8,4627.2,1584,4626.1,1584z"/>
	<path class="st7" d="M3356.5,1594.4h-687.9c-3.4,0.1-6.3-2.5-6.4-5.9V563.8c0.1-3.4,3-6.1,6.4-5.9h236.2c3.4-0.1,6.3,2.5,6.4,5.9
		v839.2h445.3c3.4-0.1,6.3,2.5,6.5,6c0,0,0,0,0,0v179.4C3362.8,1591.9,3359.9,1594.5,3356.5,1594.4z M2675.1,1582.5h675V1415h-445.3
		c-3.4,0.1-6.3-2.5-6.4-5.9c0,0,0,0,0,0V569.8h-223.2V1582.5z"/>
	<path class="st8" d="M2692.4,1594.6c-3.4,0-6.2-2.8-6.2-6.2c0-2,0.9-3.8,2.5-5l153.7-113.4l-170.2,98.3c-3,1.7-6.7,0.7-8.5-2.3
		c-1.6-2.7-0.8-6.2,1.7-8.1l146.9-108.4l-140.1,80.9c-3,1.7-6.8,0.6-8.4-2.3c-1.5-2.6-0.9-5.9,1.4-7.8l176.7-144.5l-169.6,97.9
		c-3,1.7-6.7,0.7-8.5-2.3c-1.5-2.7-0.9-6,1.5-7.9l168.8-133.4l-161.9,93.4c-3,1.7-6.8,0.6-8.4-2.4c-1.5-2.7-0.8-6,1.6-7.9
		l160.6-123.2l-153.7,88.7c-2.9,1.7-6.7,0.8-8.5-2.2c-1.6-2.7-0.9-6.1,1.5-8l173.9-140.4l-166.9,96.3c-3,1.7-6.7,0.7-8.5-2.3
		c-1.5-2.7-0.9-6.1,1.6-8l159.9-122.5l-153.1,88.4c-3,1.7-6.7,0.7-8.4-2.3c-1.5-2.7-0.8-6.2,1.7-8l148.3-109.9l-141.5,81.7
		c-3,1.7-6.7,0.7-8.5-2.3c-1.5-2.7-0.9-6,1.5-7.9l168.7-133.3l-161.8,93.4c-3,1.7-6.7,0.7-8.5-2.2c-1.5-2.6-0.9-6,1.5-7.9
		l174.8-141.8l-167.8,96.8c-3,1.7-6.7,0.7-8.4-2.3c-1.5-2.6-0.9-6,1.4-7.9l174.9-142l-167.9,96.9c-3,1.7-6.8,0.7-8.5-2.2
		c-1.6-2.7-0.9-6.2,1.6-8.1l157.3-119.5l-150.5,86.9c-2.9,1.8-6.7,0.9-8.5-2.1c-1.7-2.7-1-6.2,1.5-8.1l172.4-138.4l-165.4,95.5
		c-3,1.7-6.7,0.7-8.4-2.3c-1.5-2.6-0.9-6,1.4-7.9l175.7-143.3l-168.7,97.4c-3,1.7-6.7,0.7-8.5-2.2c-1.5-2.6-0.9-6,1.5-7.9
		l174.3-141.3l-167.3,96.6c-3,1.7-6.7,0.7-8.4-2.3c-1.5-2.6-0.9-6,1.4-7.9L2841,720.7l-168.7,97.4c-3,1.7-6.8,0.7-8.5-2.3
		c-1.5-2.7-0.9-6,1.5-7.9l168.4-133l-161.4,93.2c-2.9,1.9-6.7,1.1-8.6-1.8c-1.8-2.8-1.1-6.5,1.6-8.5l167.5-131.9l-160.6,92.7
		c-2.9,1.7-6.7,0.7-8.5-2.2c-1.5-2.6-1-5.9,1.4-7.9l123.6-104.5l-116.5,67.3c-3,1.7-6.7,0.7-8.5-2.3c-1.4-2.4-1-5.4,0.9-7.4
		l67.7-70.2l-60.1,34.7c-2,1.2-4.5,1.1-6.5-0.2c-2-1.3-3-3.5-2.8-5.9l5.1-46.1c-3.4-0.6-5.6-3.8-5-7.2c0.3-1.8,1.4-3.3,3-4.3
		l6.2-3.6c2-1.2,4.5-1.1,6.5,0.2c2,1.3,3,3.5,2.8,5.9l-4.9,44.3l87.5-50.6c3-1.7,6.7-0.7,8.5,2.3c1.4,2.4,1,5.4-0.9,7.4l-67.7,70.2
		l138.6-80c3-1.7,6.7-0.7,8.4,2.3c1.5,2.6,0.9,5.9-1.4,7.8l-123.6,104.4l175.1-101.1c3-1.7,6.7-0.7,8.5,2.3c1.5,2.7,0.9,6.1-1.5,8
		l-167.5,131.9l160.6-92.7c2.9-1.7,6.7-0.7,8.5,2.2c1.6,2.7,0.9,6.1-1.5,8l-168.4,133l161.5-93.2c3-1.7,6.8-0.6,8.4,2.4
		c1.4,2.6,0.8,5.8-1.4,7.7l-175.7,143.4l168.8-97.4c2.9-1.8,6.7-0.8,8.5,2.1c1.6,2.7,1,6.1-1.5,8L2734,879.1l167.3-96.6
		c3-1.7,6.8-0.6,8.4,2.4c1.5,2.6,0.9,5.9-1.4,7.8l-175.7,143.3l168.7-97.4c2.9-1.8,6.7-0.9,8.5,2c1.7,2.7,1,6.2-1.5,8.1L2736,987.1
		l165.4-95.5c3-1.7,6.8-0.6,8.4,2.4c1.5,2.7,0.8,6-1.6,7.9l-157.3,119.5l150.5-86.9c3-1.7,6.7-0.7,8.4,2.3c1.5,2.6,0.9,6-1.4,7.9
		l-174.9,142l167.9-97c3-1.7,6.7-0.7,8.5,2.2c1.5,2.6,0.9,6-1.5,7.9l-174.8,142l167.8-96.9c3-1.7,6.8-0.7,8.5,2.3
		c1.5,2.7,0.9,6-1.5,7.9l-168.7,133.3l161.8-93.4c2.9-1.7,6.7-0.7,8.5,2.2c1.6,2.7,0.9,6.3-1.7,8.1L2760,1215.2l141.6-81.7
		c2.9-1.7,6.7-0.7,8.5,2.2c1.6,2.7,0.9,6.2-1.6,8.1l-159.9,122.4l153.1-88.3c3-1.7,6.7-0.7,8.5,2.2c1.5,2.6,0.9,6-1.5,7.9
		l-173.9,140.4l166.9-96.4c3-1.7,6.8-0.7,8.5,2.3c1.6,2.7,0.9,6.1-1.6,8l-160.6,123.2l153.8-88.8c3-1.7,6.7-0.7,8.5,2.3
		c1.5,2.7,0.9,6-1.5,7.9l-168.8,133.4l161.9-93.4c3-1.7,6.8-0.6,8.4,2.3c1.5,2.6,0.9,5.9-1.4,7.8L2732,1481.7l169.6-97.9
		c2.9-1.7,6.7-0.7,8.5,2.2c1.6,2.7,0.9,6.3-1.7,8.1l-147,108.4l170.4-98.4c3-1.7,6.7-0.7,8.5,2.3c1.6,2.7,0.8,6.2-1.7,8.1
		L2785,1527.8l214.3-123.8c2.9-1.8,6.7-0.8,8.5,2.1c1.6,2.7,1,6.1-1.5,8.1l-159.9,129.5l242.1-139.8c2.9-1.7,6.7-0.8,8.5,2.2
		c1.6,2.7,0.9,6.3-1.7,8.1l-156.1,117l220.7-127.4c2.9-1.8,6.7-0.8,8.5,2.1c1.6,2.7,1,6.2-1.5,8.1L3007,1541.9l239.1-138.1
		c3-1.7,6.7-0.7,8.4,2.2c1.5,2.6,0.9,6-1.4,7.9l-159.9,130.4l243.6-140.6c3-1.7,6.7-0.7,8.5,2.3c1.5,2.6,0.9,5.9-1.4,7.8
		l-158.7,134.8l167.9-96.9c3-1.7,6.8-0.6,8.4,2.4c1.5,2.6,0.9,5.9-1.4,7.8l-101.3,82.9l94.4-54.5c2.9-1.7,6.7-0.7,8.5,2.2
		c1.3,2.3,1.1,5.1-0.6,7.1l-54.6,65.9l46.9-27.1c3-1.7,6.8-0.7,8.5,2.3c0.7,1.2,0.9,2.6,0.8,3.9l-4.7,33.8c3.3,0.8,5.4,4.1,4.7,7.4
		c-0.4,1.7-1.5,3.1-2.9,4l-6.2,3.6c-3,1.7-6.8,0.7-8.5-2.3c-0.7-1.2-0.9-2.6-0.8-3.9l4.4-31.8l-65.8,38c-3,1.7-6.8,0.7-8.5-2.3
		c-1.3-2.2-1-5,0.6-7l54.6-65.9l-130.4,75.3c-3,1.7-6.8,0.6-8.4-2.3c-1.5-2.6-0.9-5.9,1.4-7.8l101.3-82.9l-161.3,93.1
		c-3,1.7-6.7,0.7-8.5-2.3c-1.5-2.6-0.9-5.9,1.3-7.8l158.7-134.8l-251,144.9c-2.9,1.7-6.7,0.8-8.5-2.2c-1.6-2.7-0.9-6.1,1.5-8
		l159.9-130.4l-243.4,140.6c-2.9,1.8-6.7,0.8-8.5-2.1c-1.6-2.7-1-6.2,1.5-8.1l159.9-127.8l-239.1,138c-2.9,1.8-6.7,0.8-8.5-2.1
		c-1.6-2.7-0.9-6.3,1.7-8.2l156.1-117l-220.6,127.4c-3,1.7-6.7,0.7-8.4-2.3c-1.5-2.6-0.9-6,1.4-7.9l159.9-129.5l-242,139.7
		C2694.5,1594.4,2693.5,1594.6,2692.4,1594.6z"/>
	<path class="st9" d="M4528.7,1595.9c-0.1,0-0.2,0-0.3,0h-253.8c-2.7,0.1-5.2-1.6-6.1-4.2l-79.2-239.1h-395.4l-79.2,239.1
		c-0.9,2.6-3.4,4.3-6.2,4.2h-253.8c-2,0-4-0.9-5.3-2.5c-1.2-1.5-1.5-3.6-0.8-5.4l392.1-1026.2c1-2.5,3.4-4,6.1-4h288
		c2.6-0.1,5.1,1.5,6.1,4L4534,1586.5c0.8,1,1.2,2.2,1.2,3.4C4535,1593.4,4532.1,1596,4528.7,1595.9
		C4528.7,1595.9,4528.7,1595.9,4528.7,1595.9z M4279.4,1584h239.9L4130.2,569.6h-278.9L3463.8,1584h239.9l79.1-239
		c0.9-2.6,3.4-4.3,6.2-4.2h405c2.7-0.1,5.2,1.6,6.2,4.2L4279.4,1584z M4137.9,1170.8h-289.5c-2,0-3.9-0.9-5.2-2.4
		c-1.2-1.5-1.6-3.5-1-5.3c78.6-234.1,126.9-382.9,143.5-442.3c0.8-2.7,3.4-4.2,6.3-4.5c2.9,0,5.4,1.9,6.2,4.6
		c4,16.7,10.8,39.6,20,68.1c9.4,29,50.5,151.3,125.7,374c0.6,1.8,0.2,3.8-1,5.3C4141.7,1169.9,4139.8,1170.8,4137.9,1170.8z
		 M3857.1,1159h272c-73.6-217.9-113.9-337.8-123.2-366.4c-5.7-17.6-10.4-33-14.2-46.3C3971,815.7,3925.8,954.2,3857.1,1159
		L3857.1,1159z"/>
	<path class="st10" d="M4130.5,1146.2c-3.4,0-6.2-2.8-6.2-6.2c0-1.8,0.8-3.5,2.2-4.7l118.9-102.1l-125.3,72.3
		c-2.9,1.8-6.7,0.9-8.5-1.9c-1.7-2.6-1.1-6.1,1.3-8.1l120.6-106.7l-127.9,73.8c-3,1.7-6.7,0.6-8.4-2.4c-1.4-2.5-0.9-5.7,1.3-7.6
		l117.6-102.6l-124.3,71.8c-3,1.7-6.7,0.7-8.4-2.3c-1.5-2.7-0.9-6,1.5-7.9l99.7-78.1L4082,992.8c-3,1.7-6.7,0.6-8.4-2.3
		c-1.5-2.6-0.9-5.9,1.4-7.8l108.9-90.3L4070.3,958c-3,1.7-6.7,0.7-8.4-2.3c-1.5-2.6-0.9-5.8,1.4-7.8l109.3-91.6l-114.2,66
		c-2.9,1.7-6.7,0.8-8.5-2.2c-1.5-2.6-1-5.9,1.3-7.8l114-100.8l-120.6,69.7c-3,1.7-6.7,0.6-8.4-2.3c-1.5-2.6-0.9-5.9,1.4-7.8
		l105-87.3L4033,847c-2.9,1.8-6.7,0.9-8.5-2c-1.7-2.7-1-6.2,1.5-8.2l98.2-78.8l-101.4,58.5c-3,1.7-6.7,0.6-8.4-2.3
		c-1.5-2.6-0.9-5.9,1.5-7.9l95.7-76.3l-98.4,56.8c-2.9,1.7-6.7,0.8-8.5-2.2c-1.6-2.7-0.9-6.1,1.5-8l96-77.3l-98.6,56.9
		c-3,1.7-6.7,0.6-8.4-2.4c-1.5-2.6-0.8-6,1.5-7.9l87.5-68.2l-88.3,51c-2.9,1.8-6.7,0.9-8.5-2.1s-0.9-6.7,2.1-8.5
		c0.1-0.1,0.2-0.1,0.3-0.1l165.6-95.6c3-1.7,6.7-0.7,8.4,2.3c1.5,2.7,0.9,6-1.5,7.9l-87.5,68.2l90.6-52.3c2.9-1.7,6.7-0.8,8.5,2.2
		c1.6,2.7,0.9,6.1-1.5,8l-96.1,77.3l100.4-58c3-1.7,6.7-0.6,8.4,2.3c1.5,2.6,0.9,5.9-1.5,7.9l-95.7,76.4l99.9-57.7
		c2.9-1.8,6.7-0.9,8.5,2c1.7,2.7,1,6.2-1.5,8.2l-98.1,78.8l102.6-59.3c3-1.7,6.7-0.6,8.4,2.4c1.4,2.6,0.9,5.8-1.4,7.8l-105.1,87.2
		l110.9-64c2.9-1.7,6.7-0.7,8.5,2.2c1.5,2.6,1,5.8-1.3,7.8l-114,100.7l122.2-70.6c3-1.7,6.7-0.7,8.4,2.3c1.5,2.6,0.9,5.9-1.4,7.8
		l-109.3,91.6l115.6-66.8c3-1.7,6.7-0.6,8.4,2.4c1.4,2.6,0.9,5.8-1.4,7.8l-108.9,90.3l115-66.4c3-1.7,6.7-0.6,8.4,2.3
		c1.5,2.6,0.9,6-1.5,7.9l-99.7,78.2l103.7-59.9c3-1.7,6.7-0.6,8.4,2.3c1.4,2.5,0.9,5.7-1.3,7.7l-117.6,102.6l125.9-72.7
		c2.9-1.8,6.7-0.8,8.5,2.1c1.6,2.6,1,6-1.3,7.9L4167,1064.2l129.5-74.8c3-1.6,6.7-0.5,8.4,2.4c1.4,2.5,0.9,5.6-1.3,7.6l-118.9,102.1
		l126.8-73.2c3-1.7,6.7-0.7,8.4,2.3c1.7,3,0.7,6.7-2.3,8.4l-184.2,106.3C4132.6,1145.9,4131.5,1146.2,4130.5,1146.2z"/>
	<path class="st10" d="M4327.2,1595.7c-3.4,0-6.2-2.7-6.2-6.1c0-1.9,0.8-3.7,2.3-4.9l92.8-75.3l-139.3,80.4
		c-2.9,1.7-6.7,0.7-8.5-2.2c-1.6-2.7-0.9-6.1,1.6-8l124.3-96.8l-128.4,74.1c-3,1.7-6.7,0.7-8.4-2.3c-1.5-2.7-0.8-6.1,1.7-8
		l106.7-78.7l-108.7,62.8c-3,1.7-6.7,0.7-8.4-2.3c-1.5-2.6-0.9-5.9,1.4-7.8l135.1-113.6l-142,82c-3,1.7-6.7,0.7-8.4-2.2
		c-1.5-2.6-0.9-6,1.4-7.9l129.7-106.2l-135.4,78.2c-3,1.7-6.7,0.7-8.4-2.3c-1.5-2.7-0.9-6.1,1.6-8l116.9-90.4l-120.4,69.5
		c-3,1.7-6.7,0.7-8.4-2.3c-1.5-2.7-0.9-6,1.5-7.9l117.5-91.5l-121.2,70c-3,1.7-6.7,0.6-8.4-2.4c-1.4-2.6-0.9-5.8,1.4-7.8l127.1-105
		l-135.4,78.2c-3,1.6-6.8,0.5-8.4-2.5c-1.4-2.5-0.8-5.6,1.3-7.5l132.4-113.2l-213.7,123.4c-3,1.7-6.7,0.6-8.4-2.3
		c-1.5-2.7-0.8-6.1,1.7-8l172.3-128l-239.8,138.4c-3,1.7-6.7,0.6-8.4-2.3c-1.5-2.7-0.8-6.1,1.7-8l229.7-170.4l-313.2,180.8
		c-3,1.7-6.7,0.6-8.4-2.4c-1.5-2.8-0.7-6.3,1.9-8.1l232.5-154.6l-286,165.2c-3,1.7-6.7,0.6-8.4-2.3c-1.5-2.6-0.9-6,1.5-7.9
		l162.2-127.7l-239.1,138c-3,1.7-6.7,0.7-8.4-2.3c-1.7-3-0.7-6.7,2.3-8.4l313.6-181.1c3-1.7,6.7-0.7,8.4,2.3c1.5,2.7,0.9,6-1.5,7.9
		l-162.2,127.7l381.1-220c3-1.7,6.7-0.6,8.4,2.4c1.5,2.8,0.7,6.3-1.9,8.1l-232.5,154.5l236.8-136.8c2.9-1.7,6.7-0.7,8.5,2.2
		c1.6,2.7,0.9,6.2-1.7,8.1l-229.8,170.3l239.3-138.2c3-1.7,6.7-0.6,8.4,2.3c1.5,2.7,0.8,6.1-1.7,8l-172.3,128l179-103.3
		c3-1.6,6.8-0.5,8.4,2.5c1.4,2.5,0.8,5.6-1.3,7.5l-132.4,113.2l141.3-81.6c3-1.7,6.7-0.7,8.4,2.3c1.5,2.6,0.9,5.9-1.4,7.8
		l-127.1,105l134.5-77.7c3-1.7,6.7-0.7,8.4,2.3c1.5,2.7,0.9,6-1.6,7.9l-117.5,91.5l122.5-70.7c3-1.7,6.7-0.6,8.4,2.3
		c1.5,2.7,0.8,6-1.6,7.9l-116.9,90.4l121.7-70.3c3-1.7,6.7-0.7,8.4,2.2c1.5,2.6,0.9,6-1.4,7.9l-129.6,106.2l137-79.1
		c3-1.7,6.8-0.6,8.4,2.4c1.4,2.6,0.9,5.8-1.4,7.7l-135.1,113.6l143.7-83c2.9-1.7,6.7-0.7,8.5,2.2c1.6,2.7,0.9,6.3-1.7,8.1
		l-106.7,78.7l109.8-63.4c2.9-1.7,6.7-0.8,8.4,2.2c1.6,2.7,0.9,6.1-1.6,8l-124.3,96.9l129.8-74.9c2.9-1.8,6.7-0.8,8.5,2.1
		c1.6,2.7,1,6.1-1.5,8.1l-92.8,75.3l97.1-56.1c2.9-1.7,6.7-0.7,8.4,2.2c1.4,2.4,1,5.4-0.9,7.4l-60.7,64.2l66.7-38.5
		c2.4-1.4,5.4-1,7.4,0.9c2,1.9,2.4,4.9,1.1,7.4l-21.7,40.3l26.1-15.1c3-1.7,6.7-0.7,8.4,2.3s0.7,6.7-2.3,8.4l-44.9,25.9
		c-3,1.7-6.7,0.7-8.4-2.3c-1.1-1.9-1.1-4.1-0.1-6l21.7-40.3l-84.5,48.8c-3,1.7-6.7,0.7-8.4-2.3c-1.4-2.4-1-5.4,0.9-7.3l60.7-64.2
		l-128.1,73.9C4329.4,1595.4,4328.3,1595.7,4327.2,1595.7z"/>
	<path class="st10" d="M3517.9,1596.2c-3.4,0-6.2-2.8-6.2-6.2c0-1.9,0.9-3.6,2.3-4.8l185.7-144.8l-233.2,134.6
		c-2.9,1.8-6.7,0.8-8.5-2.1c-1.8-2.9-0.9-6.7,2-8.4l427.8-278.6l-398.9,230.3c-2.9,1.8-6.7,0.9-8.5-2c-1.8-2.9-0.9-6.7,2-8.5
		l350.6-231.4l-322.9,186.4c-2.9,1.8-6.7,0.9-8.5-2c-1.8-2.9-0.9-6.7,2-8.5l0,0l259.5-170.1l-236.1,136.3c-3,1.7-6.7,0.6-8.4-2.3
		c-1.6-2.7-0.8-6.2,1.8-8.1l238.7-170L3550,1356.7c-2.9,1.8-6.7,0.9-8.5-1.9s-0.9-6.7,1.9-8.5l169.4-115l-147.4,85.1
		c-2.9,1.7-6.7,0.7-8.5-2.2c-1.6-2.8-0.9-6.3,1.8-8.2l208.6-149.4l-180.7,104.3c-3,1.7-6.8,0.6-8.4-2.4c-1.5-2.7-0.8-6.1,1.7-8
		l204.1-146.1l-176.6,102c-3,1.7-6.7,0.6-8.4-2.3c-1.5-2.7-0.8-6.1,1.6-8l223.1-166.4l-190.9,110.2c-3,1.7-6.7,0.7-8.4-2.3
		c-1.6-2.8-0.8-6.3,1.9-8.2l164.4-112.8l-142,82c-3,1.7-6.7,0.6-8.4-2.3c-1.5-2.7-0.8-6.1,1.6-8l215.7-161.1l-184,106.3
		c-3,1.7-6.7,0.6-8.4-2.4c-1.5-2.7-0.8-6.2,1.8-8.1l172.3-120.6l-148.4,85.7c-2.9,1.7-6.7,0.8-8.5-2.2c-1.7-2.8-0.9-6.4,1.9-8.3
		l160-110.8l-137.5,79.4c-3,1.7-6.7,0.6-8.4-2.3c-1.6-2.8-0.8-6.3,1.8-8.1l159.6-111l-136.8,79c-3,1.7-6.7,0.7-8.4-2.3
		c-1.6-2.8-0.8-6.4,1.9-8.2l286.3-193.5l-259,149.5c-2.9,1.7-6.7,0.8-8.5-2.2c-1.7-2.8-0.8-6.5,1.9-8.3l256.5-174.1l-230.2,132.9
		c-3,1.7-6.7,0.6-8.4-2.4c-1.5-2.7-0.8-6.1,1.7-8l220.4-162.2l-189.6,109.4c-3,1.7-6.7,0.7-8.4-2.2c-1.5-2.6-0.9-6,1.4-7.9
		l142.8-116.1l-112.3,64.8c-3,1.7-6.7,0.6-8.4-2.3c-1.5-2.6-0.9-5.8,1.3-7.7l69.8-59.2l-46.4,26.8c-3,1.7-6.7,0.7-8.4-2.3
		c-1-1.7-1.1-3.9-0.2-5.7l23.5-48.5c-0.7-0.5-1.3-1.2-1.8-1.9c-1.7-3-0.7-6.7,2.3-8.4l7.9-4.6c2.4-1.3,5.3-1,7.3,0.8
		c2,1.8,2.5,4.8,1.4,7.2l-20.7,42.7l88.2-50.9c2.9-1.7,6.7-0.8,8.4,2.2c1.5,2.6,1,5.9-1.4,7.9l-69.8,59.2l120.2-69.4
		c3-1.7,6.7-0.7,8.4,2.2c1.5,2.6,0.9,6-1.4,7.9l-142.8,116.2l219-126.5c3-1.7,6.7-0.7,8.4,2.3c1.5,2.7,0.8,6.2-1.7,8l-220.4,162.1
		l281-162.2c3-1.7,6.7-0.6,8.4,2.4c1.5,2.8,0.7,6.3-1.9,8.1l-256.5,174.1l262.8-151.8c3-1.7,6.7-0.7,8.4,2.3
		c1.6,2.8,0.8,6.4-1.9,8.2L3868,805.8l113-65.2c3-1.7,6.7-0.6,8.4,2.4c1.5,2.7,0.8,6.2-1.8,8L3828,862l140.6-81.2
		c3-1.7,6.7-0.6,8.4,2.4c1.5,2.8,0.8,6.2-1.8,8.1l-160,110.8l140.8-81.3c3-1.7,6.7-0.7,8.4,2.3c1.6,2.8,0.8,6.3-1.8,8.1
		l-172.4,120.6l151.8-87.6c3-1.7,6.7-0.7,8.4,2.3c1.6,2.7,0.8,6.1-1.6,8l-215.7,161.1l188.5-108.9c3-1.7,6.7-0.7,8.4,2.3
		c1.6,2.8,0.8,6.3-1.9,8.2l-164.4,112.9l144.8-83.6c3-1.7,6.7-0.7,8.4,2.3c1.6,2.7,0.9,6.2-1.7,8.1l-223.1,166.4l195-112.6
		c3-1.7,6.7-0.7,8.4,2.2c1.6,2.8,0.8,6.3-1.7,8.1l-204.1,146.1l180.2-104.1c2.9-1.7,6.7-0.8,8.5,2.1c1.7,2.8,0.9,6.4-1.8,8.2
		l-208.6,149.4l184.9-106.7c3-1.7,6.7-0.7,8.4,2.2c1.6,2.8,0.8,6.4-1.9,8.2l-169.4,115l174.8-100.9c2.9-1.8,6.7-0.8,8.5,2.1
		c1.7,2.8,0.9,6.4-1.8,8.3l-238.7,170l312.8-180.6c2.9-1.8,6.7-0.9,8.5,2c1.8,2.9,0.9,6.7-2,8.5l-259.4,170l313-180.7
		c3-1.7,6.7-0.7,8.4,2.3c1.6,2.8,0.8,6.4-1.9,8.2L3661.8,1402l419.3-242.1c2.9-1.7,6.7-0.8,8.5,2.1c1.7,2.9,0.8,6.6-2,8.4
		L3659.8,1449l110.8-64c3-1.7,6.7-0.7,8.4,2.3c1.5,2.7,0.9,6-1.5,7.9l-185.7,144.8l157.8-91.1c2.9-1.7,6.7-0.7,8.4,2.2
		c1.5,2.5,1,5.8-1.2,7.7l-106.5,95.5l79.8-46.1c2.6-1.5,5.9-0.9,7.8,1.4c1.9,2.3,1.9,5.6,0,7.9l-40.4,49.3l16.5-9.5
		c3-1.7,6.7-0.7,8.4,2.3c1.7,3,0.7,6.7-2.3,8.4l-45.9,26.5c-2.9,1.7-6.7,0.7-8.4-2.2c-1.3-2.2-1.1-5,0.6-7l40.4-49.2l-101.8,58.8
		c-2.9,1.8-6.7,0.9-8.5-1.9c-1.7-2.6-1.1-6.1,1.3-8.1l106.5-95.5L3521,1595.3C3520.1,1595.9,3519,1596.2,3517.9,1596.2z"/>
	<path class="st10" d="M3979.4,1274.4c-3.5,0-6.4-2.8-6.4-6.4c0-2.2,1.1-4.2,3-5.4l341.4-215.5c3-1.9,6.9-1,8.8,2s1,6.9-2,8.8
		l-341.4,215.5C3981.8,1274.1,3980.6,1274.4,3979.4,1274.4z"/>
	<path class="st11" d="M6638.7,1595.9c-0.1,0-0.2,0-0.3,0h-253.8c-2.7,0.1-5.2-1.6-6.1-4.2l-79.2-239.1h-395.5l-79.2,239.1
		c-0.9,2.6-3.4,4.3-6.2,4.2h-253.8c-2,0-4-0.9-5.2-2.5c-1.2-1.5-1.5-3.6-0.8-5.4l392.1-1026.2c1-2.5,3.4-4,6.1-4h288
		c2.6-0.1,5.1,1.5,6.1,4L6644,1586.6c0.8,1,1.2,2.2,1.2,3.4C6645,1593.4,6642.1,1596,6638.7,1595.9z M6389.4,1584h239.9
		L6240.3,569.6h-278.9L5573.9,1584h239.9l79.1-239c0.9-2.6,3.4-4.3,6.2-4.2h405c2.7-0.1,5.2,1.6,6.2,4.2L6389.4,1584z
		 M6247.9,1170.8h-289.5c-2,0-3.9-0.9-5.2-2.4c-1.2-1.5-1.6-3.5-1-5.3c78.6-234.1,126.9-382.9,143.5-442.3c0.8-2.7,3.4-4.2,6.3-4.5
		c2.9,0,5.4,1.9,6.2,4.6c4,16.7,10.8,39.6,20,68.1c9.4,29,50.5,151.3,125.7,374c0.6,1.8,0.2,3.8-1,5.3
		C6251.7,1169.9,6249.9,1170.8,6247.9,1170.8z M5967.1,1159h272c-73.6-217.9-113.9-337.8-123.2-366.4c-5.7-17.6-10.4-33-14.2-46.3
		C6081,815.7,6035.8,954.2,5967.1,1159L5967.1,1159z"/>
	<path class="st12" d="M6240.5,1146.2c-3.4,0-6.2-2.8-6.2-6.2c0-1.8,0.8-3.5,2.2-4.7l118.9-102.1l-125.3,72.3
		c-2.9,1.8-6.7,0.9-8.5-1.9c-1.7-2.6-1.1-6.1,1.3-8.1l120.6-106.7l-127.9,73.8c-3,1.7-6.7,0.6-8.4-2.3c-1.4-2.5-0.9-5.7,1.3-7.7
		l117.7-102.6l-124.3,71.8c-3,1.7-6.7,0.7-8.4-2.3c-1.5-2.7-0.9-6,1.5-7.9l99.7-78.1l-102.6,59.3c-3,1.7-6.7,0.6-8.4-2.3
		c-1.5-2.6-0.9-5.9,1.4-7.8l108.9-90.3L6180.4,958c-3,1.7-6.7,0.7-8.4-2.3c-1.5-2.6-0.9-5.8,1.4-7.8l109.2-91.6l-114.2,66
		c-2.9,1.8-6.7,0.8-8.5-2.1c-1.5-2.6-1-5.9,1.3-7.9l114-100.8l-120.6,69.7c-3,1.7-6.7,0.6-8.4-2.3c-1.5-2.6-0.9-5.9,1.4-7.8
		l105-87.3L6143.1,847c-2.9,1.8-6.7,0.9-8.5-2c-1.7-2.7-1-6.2,1.5-8.2l98.2-78.8l-101.4,58.5c-2.9,1.8-6.7,0.9-8.5-2
		c-1.7-2.7-1-6.2,1.5-8.2l95.7-76.3l-98.4,56.8c-2.9,1.8-6.7,1-8.5-1.9c-1.7-2.7-1.1-6.3,1.5-8.2l96-77.3l-98.5,56.9
		c-2.9,1.7-6.7,0.8-8.5-2.2c-1.6-2.7-0.9-6.2,1.6-8.1l87.5-68.2l-88.3,51c-3,1.7-6.7,0.7-8.4-2.3c-1.7-3-0.7-6.7,2.3-8.4l165.6-95.6
		c3-1.7,6.7-0.7,8.4,2.3c1.5,2.7,0.9,6-1.5,7.9l-87.5,68.2l90.6-52.3c2.9-1.8,6.7-1,8.5,1.9c1.7,2.7,1.1,6.3-1.5,8.2l-96,77.3
		l100.4-58c3-1.7,6.7-0.6,8.4,2.3c1.5,2.6,0.9,5.9-1.5,7.9l-95.7,76.3l99.9-57.7c2.9-1.8,6.7-0.9,8.5,2c1.7,2.7,1,6.2-1.5,8.2
		l-98.1,78.8l102.6-59.3c3-1.7,6.7-0.6,8.4,2.4c1.4,2.6,0.9,5.8-1.4,7.8l-105.1,87.2l110.9-64c2.9-1.7,6.7-0.8,8.5,2.2
		c1.5,2.6,1,5.9-1.3,7.8l-113.9,100.7l122.2-70.6c3-1.7,6.7-0.7,8.4,2.3c1.5,2.6,0.9,5.9-1.4,7.8l-109.2,91.6l115.6-66.8
		c3-1.7,6.7-0.6,8.4,2.4c1.4,2.6,0.9,5.8-1.4,7.8l-108.9,90.3l114.9-66.4c3-1.7,6.7-0.6,8.4,2.3c1.5,2.6,0.9,6-1.5,7.9l-99.7,78.2
		l103.8-59.9c2.9-1.7,6.7-0.7,8.4,2.2c1.5,2.6,1,5.8-1.3,7.8l-117.6,102.6l125.9-72.7c2.9-1.8,6.7-0.8,8.5,2.1
		c1.5,2.6,1,5.9-1.3,7.9l-120.6,106.7l129.5-74.8c3-1.6,6.7-0.5,8.4,2.4c1.4,2.5,0.9,5.6-1.3,7.6l-118.9,102.1l126.8-73.2
		c3-1.7,6.7-0.7,8.4,2.3s0.7,6.7-2.3,8.4l-184.2,106.3C6242.7,1145.9,6241.6,1146.2,6240.5,1146.2z"/>
	<path class="st12" d="M6437.3,1595.7c-3.4,0-6.2-2.7-6.2-6.1c0-1.9,0.8-3.7,2.3-4.9l92.8-75.3l-139.3,80.4
		c-2.9,1.7-6.7,0.7-8.5-2.2c-1.6-2.7-0.9-6.1,1.6-8l124.3-96.8l-128.4,74.1c-3,1.7-6.7,0.6-8.4-2.4c-1.5-2.7-0.8-6.1,1.7-8
		l106.7-78.7l-108.7,62.8c-3,1.7-6.7,0.7-8.4-2.3c-1.5-2.6-0.9-5.9,1.4-7.8l135.1-113.6l-142,82c-3,1.7-6.7,0.7-8.4-2.2
		c-1.5-2.6-0.9-6,1.4-7.9l129.7-106.2l-135.4,78.2c-3,1.7-6.7,0.7-8.4-2.3c-1.5-2.7-0.9-6.1,1.6-8l116.9-90.4l-120.4,69.5
		c-3,1.7-6.7,0.7-8.4-2.3c-1.5-2.7-0.9-6,1.5-7.9l117.5-91.5l-121.2,70c-3,1.7-6.7,0.6-8.4-2.4c-1.4-2.6-0.9-5.8,1.4-7.8l127.1-105
		l-135.4,78.2c-3,1.6-6.8,0.5-8.4-2.5c-1.4-2.5-0.8-5.6,1.3-7.5l132.4-113.2l-213.7,123.4c-3,1.7-6.7,0.6-8.4-2.3
		c-1.5-2.7-0.8-6.1,1.7-8l172.3-128l-239.8,138.4c-3,1.7-6.7,0.6-8.4-2.3c-1.5-2.7-0.8-6.1,1.7-8l229.7-170.4l-313.2,180.8
		c-2.9,1.8-6.7,0.9-8.5-2s-0.9-6.7,2-8.5l232.5-154.6l-286,165.2c-3,1.7-6.7,0.6-8.4-2.3c-1.5-2.6-0.9-6,1.5-7.9l162.2-127.7
		l-239.1,138c-3,1.7-6.7,0.7-8.4-2.3c-1.7-3-0.7-6.7,2.3-8.4l0,0L6215,1160c3-1.7,6.7-0.7,8.4,2.3c1.5,2.7,0.9,6-1.5,7.9
		l-162.2,127.7l381-220c2.9-1.8,6.7-0.9,8.5,2s0.9,6.7-2,8.5l0,0l-232.5,154.5l236.8-136.8c2.9-1.7,6.7-0.8,8.5,2.2
		c1.6,2.8,0.9,6.3-1.7,8.2l-229.7,170.4l239.3-138.2c3-1.7,6.7-0.7,8.4,2.3c1.6,2.7,0.9,6.2-1.7,8.1l-172.3,128l179-103.3
		c3-1.7,6.7-0.6,8.4,2.4c1.4,2.5,0.9,5.7-1.3,7.6l-132.4,113.2l141.3-81.6c3-1.7,6.7-0.7,8.4,2.3c1.5,2.6,0.9,5.9-1.4,7.8
		l-127.1,105l134.5-77.7c3-1.7,6.7-0.7,8.4,2.3c1.5,2.7,0.9,6-1.6,7.9l-117.4,91.5l122.5-70.7c3-1.7,6.7-0.6,8.4,2.3
		c1.5,2.7,0.8,6-1.6,7.9l-116.9,90.4l121.7-70.3c3-1.7,6.7-0.7,8.4,2.2c1.5,2.6,0.9,6-1.4,7.9l-129.7,106.2l137-79.1
		c3-1.7,6.8-0.6,8.4,2.4c1.4,2.6,0.9,5.8-1.4,7.7L6421.8,1485l143.7-83c2.9-1.7,6.7-0.7,8.5,2.2c1.6,2.7,0.9,6.3-1.7,8.1
		l-106.7,78.7l109.8-63.4c2.9-1.7,6.7-0.8,8.4,2.2c1.6,2.7,0.9,6.1-1.6,8l-124.3,96.9l129.8-74.9c2.9-1.8,6.7-0.8,8.5,2.1
		c1.6,2.7,1,6.1-1.5,8.1l-92.8,75.3l97.1-56.1c2.9-1.7,6.7-0.7,8.4,2.2c1.4,2.4,1,5.4-0.9,7.4l-60.8,64.2l66.7-38.5
		c2.4-1.4,5.4-1,7.4,0.9c2,1.9,2.4,4.9,1.1,7.4l-21.7,40.3l26.1-15.1c3-1.7,6.7-0.7,8.4,2.3c1.7,3,0.7,6.7-2.3,8.4l-44.9,25.9
		c-3,1.7-6.7,0.7-8.4-2.3c-1.1-1.9-1.1-4.1-0.1-6l21.7-40.3l-84.5,48.8c-3,1.7-6.7,0.7-8.4-2.3c-1.4-2.4-1-5.4,0.9-7.3l60.7-64.2
		l-128.1,73.9C6439.5,1595.4,6438.4,1595.7,6437.3,1595.7z"/>
	<path class="st12" d="M5628,1596.2c-3.4,0-6.2-2.8-6.1-6.2c0-1.9,0.9-3.6,2.3-4.8l185.7-144.8l-233.2,134.6c-2.9,1.8-6.7,0.9-8.5-2
		c-1.8-2.9-0.9-6.7,2-8.5l0,0l427.8-278.6l-398.9,230.3c-3,1.7-6.7,0.6-8.4-2.4c-1.6-2.8-0.7-6.3,1.9-8.1l350.6-231.4l-322.9,186.4
		c-3,1.7-6.7,0.7-8.4-2.2c-1.6-2.8-0.8-6.5,2-8.3l259.5-170.1l-236.1,136.3c-3,1.7-6.7,0.6-8.4-2.3c-1.6-2.7-0.8-6.2,1.8-8.1
		l238.7-170l-209.2,120.8c-2.9,1.7-6.7,0.8-8.5-2.2c-1.7-2.8-0.8-6.5,1.9-8.3l169.3-115l-147.4,85.1c-3,1.7-6.7,0.7-8.4-2.3
		c-1.6-2.7-0.8-6.2,1.8-8.1l208.6-149.4l-180.7,104.3c-3,1.7-6.8,0.6-8.4-2.3c-1.6-2.7-0.8-6.2,1.7-8.1l204.2-146.1l-176.6,102
		c-3,1.7-6.7,0.6-8.4-2.3c-1.5-2.7-0.8-6.1,1.6-8l223.1-166.4l-190.9,110.2c-3,1.7-6.7,0.7-8.4-2.3c-1.6-2.8-0.8-6.3,1.9-8.2
		l164.4-112.8l-142,82c-3,1.7-6.7,0.6-8.4-2.3c-1.5-2.7-0.8-6.1,1.6-8l215.7-161.1l-184,106.3c-3,1.7-6.7,0.6-8.4-2.4
		c-1.5-2.7-0.8-6.2,1.8-8.1l172.3-120.6L5801,988c-2.9,1.8-6.7,0.9-8.5-2c-1.8-2.9-0.9-6.6,1.9-8.4l160-110.8l-137.5,79.4
		c-3,1.7-6.7,0.6-8.4-2.4c-1.5-2.7-0.8-6.2,1.8-8l159.6-111l-136.8,79c-3,1.7-6.7,0.7-8.4-2.3c-1.6-2.8-0.8-6.4,1.9-8.2l286.3-193.5
		l-258.9,149.5c-2.9,1.8-6.7,0.9-8.5-2c-1.8-2.9-0.9-6.7,2-8.5l256.5-174.1l-230.2,132.9c-3,1.7-6.7,0.7-8.4-2.3
		c-1.5-2.7-0.8-6.1,1.7-8l220.4-162.1l-189.5,109.4c-3,1.7-6.7,0.7-8.4-2.2c-1.5-2.6-0.9-6,1.4-7.9l142.8-116.1l-112.4,64.8
		c-3,1.7-6.7,0.6-8.4-2.3c-1.5-2.6-0.9-5.8,1.3-7.7l69.8-59.2l-46.4,26.8c-3,1.7-6.8,0.6-8.4-2.4c-1-1.7-1.1-3.8-0.2-5.6l23.5-48.5
		c-2.8-2-3.4-5.8-1.5-8.6c0.5-0.7,1.2-1.4,2-1.8l7.9-4.6c2.4-1.3,5.3-1,7.3,0.8c2,1.8,2.5,4.8,1.4,7.2l-20.7,42.7l88.2-50.9
		c2.9-1.7,6.7-0.8,8.4,2.2c1.5,2.6,1,5.9-1.4,7.9l-69.8,59.2l120.2-69.4c3-1.7,6.7-0.7,8.4,2.2c1.5,2.6,0.9,6-1.4,7.9l-142.8,116.2
		l219-126.5c3-1.7,6.7-0.7,8.4,2.3c1.5,2.7,0.8,6.1-1.7,8L5964,731.2L6244.9,569c3-1.7,6.7-0.6,8.4,2.4c1.5,2.8,0.7,6.3-1.9,8.1
		L5995,753.6l262.7-151.8c3-1.7,6.7-0.7,8.4,2.3c1.6,2.8,0.8,6.4-1.9,8.2L5978,805.8l113-65.2c3-1.7,6.7-0.6,8.4,2.3
		c1.6,2.8,0.8,6.3-1.8,8.1L5938,862l140.7-81.2c3-1.7,6.7-0.6,8.4,2.4c1.5,2.8,0.8,6.2-1.8,8.1l-160,110.7l140.8-81.3
		c2.9-1.7,6.7-0.7,8.4,2.2c1.6,2.8,0.8,6.3-1.8,8.2l-172.4,120.6l151.8-87.6c2.9-1.7,6.7-0.7,8.5,2.2c1.6,2.7,0.9,6.2-1.7,8.1
		l-215.7,161.1l188.5-108.9c3-1.7,6.7-0.7,8.4,2.3c1.6,2.8,0.8,6.3-1.9,8.2l-164.4,112.9l144.8-83.6c3-1.7,6.7-0.7,8.4,2.3
		c1.6,2.7,0.9,6.2-1.7,8.1l-223.1,166.4l195-112.6c3-1.7,6.7-0.6,8.4,2.3c1.6,2.7,0.8,6.2-1.7,8.1L5800,1186.9l180.2-104.1
		c3-1.7,6.7-0.7,8.4,2.2c1.6,2.8,0.8,6.3-1.7,8.1l-208.6,149.4l184.9-106.7c2.9-1.8,6.7-0.8,8.5,2.1c1.7,2.8,0.9,6.5-1.9,8.3
		l-169.4,115l174.8-100.9c2.9-1.8,6.7-0.8,8.5,2.1c1.7,2.8,0.9,6.4-1.8,8.3l-238.7,170l312.8-180.5c2.9-1.8,6.7-0.9,8.5,2
		c1.8,2.9,0.9,6.7-2,8.5l-259.4,170l313-180.7c2.9-1.7,6.7-0.8,8.5,2.2c1.7,2.9,0.8,6.5-2,8.3l-350.6,231.4l419.3-242.1
		c2.9-1.8,6.7-0.9,8.5,2c1.8,2.9,0.9,6.7-2,8.5l-427.8,278.6l110.8-64c3-1.7,6.7-0.7,8.4,2.3c1.5,2.7,0.9,6-1.5,7.9l-185.7,144.8
		l157.8-91.1c3-1.7,6.7-0.7,8.4,2.3c1.5,2.5,0.9,5.7-1.2,7.7l-106.5,95.5l79.8-46.1c2.6-1.5,5.9-0.9,7.8,1.4c1.9,2.3,2,5.6,0,7.9
		l-40.4,49.2l16.5-9.5c3-1.7,6.7-0.7,8.4,2.3c1.7,3,0.7,6.7-2.3,8.4l-45.9,26.5c-3,1.7-6.7,0.7-8.4-2.3c-1.3-2.2-1-5,0.6-7
		l40.4-49.2l-101.8,58.8c-2.9,1.8-6.7,0.9-8.5-1.9c-1.7-2.6-1.1-6.1,1.3-8.1l106.5-95.5l-183.4,105.9
		C5630.1,1595.8,5629.1,1596.1,5628,1596.2z"/>
	<path class="st12" d="M6089.5,1274.4c-3.5,0-6.4-2.8-6.4-6.4c0-2.2,1.1-4.2,3-5.4l341.4-215.5c3-1.9,6.9-1,8.8,2s1,6.9-2,8.8
		l-341.4,215.5C6091.8,1274.1,6090.7,1274.4,6089.5,1274.4z"/>
	<path class="st8" d="M6269.7,1825.4c-14.7,152-307.4,409.3-328.2,425.4c-9.2,7.6-48.9,42.1-64.1,53.4c8.5,0.1,160-78.3,215.4-129.1
		c78.8-72.1,185.4-164.7,240.8-272.5c13.2-25.8,27.5-51.3,38.8-77.5C6339.7,1825.3,6305.5,1825.4,6269.7,1825.4z"/>
	<path class="st13" d="M5309.9,1764.3l49.5-40.3l15.9-13.5l64-55.2c8.4-7.4,16.9-14.7,25.4-22c-1347.9,28.9-3861,85.1-3861,85.1
		s-30.4,1.7-32.6,13.1c-0.1,0-0.2,0.1-0.2,0.1c0,0.2,0.1,0.4,0.1,0.6s-0.1,0.4-0.1,0.6c0,0,0.2,0,0.2,0.1
		c2.3,11.3,32.8,12.8,32.8,12.8s2187.6,38.5,3649.8,61.4l21.8-16.3C5287,1782.2,5298.4,1773.5,5309.9,1764.3z"/>
	<path class="st13" d="M6693.4,1719.5c0.5-8,3-100.3-165.9-102.6c-19-0.2-39.1-0.4-59.9-0.6c0,0-440.6,6.3-794.2,12.8
		c-7.7,5.6-15.4,11.2-23.5,17.3c-45.3,34-91.6,71.3-131.5,103.6l-66.9,53.5l-8.3,6.5c540.5,8.2,1021.9,14.6,1085.7,13.3
		C6698,1819.7,6694.1,1727.4,6693.4,1719.5z M6493.9,1753.7l-57.8,0.2h-16.2l-101.3,0.4l-56.9,0.2l-168.2,0.6
		c-26.1,0.1-47.4-14.8-47.5-33.3s20.9-33.6,47-33.7l400.4-1.5c26.1-0.1,47.4,14.8,47.5,33.3S6520,1753.6,6493.9,1753.7z"/>
	<path class="st8" d="M6418.4,1624.3c-0.2-2.6-0.5-5.3-0.7-8c-1.9-21.5-4.5-45.7-11.8-72.8c-7.9-30.3-20.7-64.3-43.2-97.6
		c-24.3-36.2-57.2-65.8-95.8-86.1c-40.3-22.1-86.8-33.2-134-36.7c-47.3-3-95.7,1.7-143.7,12.9c-48.1,10.8-95.8,28.4-142.7,50.6
		c-11.6,6-23.2,11.4-35,18.1c-10.9,6.2-21.3,11.5-33,18.6c-23.2,13.5-45.4,27.3-67.6,42.2c-73.5,48.8-143.7,106.7-213.5,167
		c-14.8,12.8-29.6,25.6-44.4,38.6c-21.2,18.3-42.5,36.7-64.1,55.3l-16.2,13.8l-16.1,13.2l-33.5,27.3c-11.6,9.3-23.3,18.1-35,26.9
		c-10.9,8.2-21.8,16.2-32.9,24.6c-23.8,16.1-47,33.4-71.6,48.9c-98.7,64.3-202.3,120.7-309.9,168.8c-108.1,48-219.4,88.7-333,121.9
		c-56.4,16.1-112.7,30.9-168.9,43.2c-55.2,12.7-111,22.6-167.2,29.5c-221.8,27.7-432.6,12.3-609.7-14.8
		c-177.5-27.4-322.7-66.5-423.2-96.3c-50.3-15-89.5-27.9-116.1-36.9s-40.8-14-40.8-14l40.4,15c26.4,9.7,65.3,23.5,115.2,39.8
		c99.9,32.4,244.2,75.2,422,107.3c177.3,31.6,389.4,52.6,615.5,30.2c56.7-5.5,113.7-14.4,170.9-25.1c57.4-10.4,115-23.2,172.8-37.4
		c116.9-29.5,231.7-66.7,343.6-111.5c112.3-45.3,220.9-99.3,324.8-161.6c26-15.1,50.7-32,75.9-47.9c24.5-17,49.9-34,73.3-51.3
		l34.6-26l5.9-4.4l11.8-9l17-13.4c22.4-17.9,44.7-35.7,66.7-53.4c44.8-36.3,88.6-71.4,132.1-104.1c41.4-31.1,82.6-60,124-85.3
		c21.1-13.1,42.6-25.3,63.1-36.3c9.9-5.6,21.9-11.3,32.6-16.8c9.9-5.1,20.6-9.7,30.8-14.5c41.4-17.8,82.8-31.3,122.8-38.7
		c79.9-16,154.3-7.6,201.2,20.8c47.7,27.3,68.1,72,77.3,113.1c3.1,14.6,5.2,29.5,6.1,44.4c1.2,19.2,0.8,38.4-1,57.5
		c-0.2,2.9-0.4,5.7-0.5,8.2c-0.2,2-0.5,3.7-0.7,5.4c-0.1,1-0.3,2.2-0.4,3.2c-0.7,5.3-1.2,9.8-1.7,13.4c-0.9,7.2-2.3,24.1-2.3,24.1
		l126,0.3c0,0,0.3-3.8,1-11c0.3-3.6,0.7-8.1,1.2-13.4c0.3-2.7,0.5-5.6,0.8-8.7c0.1-2.6,0.2-5.5,0.4-8.3c0-1.1,0.1-2.1,0.1-3.2
		c0.3-8.2,0.8-17.5,0.9-27.4C6419,1646.5,6418.7,1635.9,6418.4,1624.3z"/>
	<path class="st14" d="M1588.9,2212.9c0-46.3,13.7-92.1,41.1-137.5c-31.7-20.1-47.6-49.9-47.6-89.3c0-47.6,21-89.7,63-126.6
		c47.1-41.5,107.9-62.3,182.5-62.3c34.3,0,71.1,4.9,110.5,14.8c9,2.1,47.3,18.7,115,49.8c67.7,31,116.3,46.6,145.9,46.6
		c19.7,0,34.5-5.6,44.3-16.7c5.1-5.6,7.7-11.6,7.7-18c0-6.4-2.8-12.2-8.4-17.3c-3-4.3-4.5-7.1-4.5-8.4c0-1.3,1.2-1.9,3.5-1.9
		s6.4,3.8,12.2,11.2c5.8,7.5,8.9,16.8,8.7,26.3c0,10.1-6.7,19.7-20.2,28.9s-30.5,13.8-51.1,13.8c-32.1,0-82-15.5-149.7-46.6
		c-67.7-31.1-110.2-48.3-127.5-51.7c-17.3-3.4-37.1-5.1-59.4-5.2c-88.7,0-158.5,28.7-209.5,86.1c-6,6.4-13.1,19.4-21.2,38.9
		s-12.2,38.2-12.2,56.2c0,24.9,8.8,44.1,26.3,57.8c22.3-32.5,48.6-58.5,79-77.8c30.4-19.3,61.2-28.9,92.5-28.9
		c38.6,0,57.8,15,57.8,45c0,36-21.1,75.1-63.3,117.3s-81.3,63.3-117.2,63.3c-23.1,0-34.7-9.9-34.7-29.6c-0.1-6.4,1.8-12.7,5.4-18
		c3.6-5.1,8-7.1,13.2-5.8l-1.3,14.8c0,6.4,9.9,9.6,29.6,9.6c29.1,0,59.9-15,92.2-45s51.9-59.3,58.8-88c1.6-5.6,2.5-11.5,2.6-17.3
		c0-19.3-12.3-28.9-36.9-28.9c-24.6,0-50.1,9.4-76.5,28.3c-26.3,18.9-51.1,43.7-74.2,74.5c1.7,0.9,8.4,2.6,19.9,5.1l38.6,1.3
		c18.8,0.9,28.3,3,28.3,6.4c0,6-9,9-27,9h-3.9c-26.1,0-47.6-3.2-64.2-9.6c-33,50.5-49.5,97-49.5,139.4c0,54.8,21.2,82.2,63.6,82.2
		c48,0,97.9-33.4,149.7-100.2l125.9-187.6c47.1-68.5,88-103.6,122.7-105.4l24.4,5.8c7.7,4.3,11.6,10.7,11.6,19.3
		c0,8.6-2.1,12.8-6.4,12.9l-20.6-3.2c-29.6,0-67.5,31.9-113.7,95.7l-127.8,178.6c-54.8,63.8-107.3,95.7-157.4,95.7
		c-34.3,0-57.9-9.2-71-27.6S1588.8,2248,1588.9,2212.9z"/>
	<path class="st14" d="M2147.9,2253.4c-25.3,0-37.9-14.8-37.9-44.3c0-16.7,5.9-35.2,17.7-55.6c11.8-20.3,26.2-44.2,43.4-71.7
		c-54.8,27.4-104.5,67.9-149.1,121.4c-24.9,37.3-39.4,55.9-43.7,55.9c-12.4,0-18.6-3.6-18.6-10.9c0-3.9,2.6-10.7,7.7-20.6
		c41.5-74.1,73-128.3,94.4-162.6c51-81.8,87-126.2,107.9-133c0.8-0.4,1.7-0.6,2.6-0.6c5.6,0,9.4,4.5,11.6,13.5
		c-1.3,9-23.6,41.5-66.8,97.7c-45,57-70.5,94.2-76.5,111.8c15.8-11.6,43.5-31.1,82.9-58.5c42.4-29.6,70.5-44.3,84.2-44.3
		s20.6,5.4,20.6,16.1c0.1,1.2-0.1,2.4-0.3,3.5c-0.2,0.7-15.1,20.9-44.7,60.7s-44.3,69.1-44.3,88c0,9.9,3.6,14.8,10.9,14.8
		c23.1-0.9,57.8-28.7,104.1-83.5c3.9-3.9,6.8-5.8,8.7-5.8c1.9,0,2.9,1.3,2.9,3.9c0,8.6-21.2,31.7-63.6,69.4
		C2175.3,2241.8,2157.3,2253.4,2147.9,2253.4z"/>
	<path class="st14" d="M2269.9,2264.3c-4.4,0.1-8.7-0.6-12.9-1.9c-27.4-7.7-41.1-23.1-41.1-46.3c0-30,18.8-64.7,56.6-104.1
		c37.7-39.4,71.5-59.1,101.4-59.1c9.8,0,17.9,2.7,24.1,8s9.3,11.9,9.3,19.6c0,24-18.1,46.9-54.3,68.8s-65.6,32.8-88.3,32.8
		c-3.1,0.1-6.1-0.4-9-1.3c-6.3,11.2-9.6,23.8-9.6,36.6c0,22.3,10.6,33.4,31.8,33.4c21.2,0,48.7-14.4,82.6-43.1
		c26.1-21,48.4-43.3,66.8-66.8c3.9-5.1,7.2-7.7,10-7.7s4.2,1.3,4.2,3.9s-1.7,6.2-5.1,10.9c-23.7,31-51.8,58.3-83.5,81
		C2320.3,2252.6,2292.6,2264.3,2269.9,2264.3z M2391.4,2079.3c0-5.1-5.5-7.7-16.4-7.7s-26.4,8.4-46.6,25.1c-27,22.3-48,45.6-63,70
		c2.7,0.9,5.5,1.3,8.4,1.3c16.3,0,38-8.7,65.2-26c27.2-17.3,44.2-36.3,51.1-56.9C2390.8,2083.2,2391.3,2081.3,2391.4,2079.3
		L2391.4,2079.3z"/>
	<path class="st14" d="M2936.2,2238.6c0,28.7,14.4,43,43.1,43.1c38.6,0,85-27.8,139.4-83.5c49.3-49.7,86.8-100.3,112.8-152
		c25.9-51.7,38.9-91,38.9-117.9c0-4.3-0.4-8.6-1.3-12.8c-9.4,0-19.1-4.9-28.9-14.8v0.7c-6.4-5.1-9.6-10.4-9.6-15.7
		c-0.1-5.2,2.3-10.1,6.4-13.2c4.3-3.4,9.8-5.1,16.7-5.1c6.9,0,11.7,2.7,14.4,8c2.8,5.3,6.3,10.2,10.6,14.4c4.3,4.3,6.2,7.3,5.8,9
		c2.6,3.8,6.5,5.8,11.9,5.8s11.4-2.6,18.3-7.7s12.3-7.7,16.4-7.7s6.1,1.3,6.1,3.8c0,4.7-4.1,9.2-12.2,13.5
		c-4.4,3.5-9.8,5.5-15.4,5.8h-20.6c5.1,17.6,7.7,30.2,7.7,37.9c0,34.3-16.4,78.8-49.1,133.6c-32.8,54.8-74.9,103.5-126.3,145.9
		c-51.8,43.7-98.8,65.5-141,65.5c-42.2,0-63.3-20.6-63.3-61.7c0-32.5,13.7-79,41.1-139.4l46.3-100.9l-63,48.8
		c-19.7,16.3-39.7,34.2-60.1,53.6s-55.8,59.6-106.4,120.5l-74.5,91.2c-12,13.7-22.7,20.6-32.1,20.6c-7.3,0-10.9-4.7-10.9-14.1
		c0-9.4,3.9-21.6,11.6-36.6l124-178.6c75-110.1,112.4-179.9,112.4-209.5c0-16.3-15-24.4-45-24.4c-36.4,0-87.2,22.3-152.3,66.8
		c-35.1,24-66,54.1-92.5,90.3c-26.6,36.2-39.8,66.2-39.8,90c0,23.8,15.9,35.6,47.6,35.6c29.6,0,60-13.7,91.2-41.1
		c11.1-9.4,17.6-14.1,19.3-14.1c1.7,0,2.4,1.5,1.9,4.5c-4.7,16.3-22.2,31.8-52.4,46.6s-56.9,22.2-80,22.2c-6,0-10.1-0.2-12.2-0.6
		h-0.6c-34.3-7.3-51.4-24.2-51.4-50.8c0-26.6,14.8-58.5,44.3-95.7c52.3-65.9,119.5-115,201.8-147.1c42.4-16.3,77.3-24.4,104.7-24.4
		c33.8,0,50.7,11.1,50.8,33.4c0,46.3-58.3,146.7-174.8,301.3c-39,51.8-58.7,77.7-59.1,77.8c1.3,0,23.7-24.2,67.1-72.6
		c43.5-48.4,84.7-89.7,123.7-124c15-13.3,40.9-37.7,77.8-73.2c19.3-18,40.2-34.4,62.3-48.8c5.6-3.4,13.6-5.1,24.1-5.1
		c10.5,0,17.7,3,21.5,9c-39.4,48.8-73.8,103.5-103.1,164.2C2950.8,2169.1,2936.2,2212.5,2936.2,2238.6z"/>
	<path class="st14" d="M3291.5,2264.3c-4.4,0.1-8.7-0.6-12.9-1.9c-27.4-7.7-41.1-23.1-41.1-46.3c0-30,18.8-64.7,56.5-104.1
		s71.5-59.1,101.5-59.1c9.8,0,17.9,2.7,24.1,8c6.2,5.3,9.3,11.9,9.3,19.6c0,24-18.1,46.9-54.3,68.8c-36.2,21.8-65.6,32.8-88.4,32.8
		c-3.1,0.1-6.1-0.4-9-1.3c-6.3,11.2-9.6,23.8-9.6,36.6c0,22.3,10.6,33.4,31.8,33.4s48.7-14.4,82.6-43.1c26.1-21,48.4-43.3,66.8-66.8
		c3.8-5.1,7.2-7.7,9.9-7.7s4.2,1.3,4.2,3.9c0,2.6-1.7,6.2-5.1,10.9c-23.7,31-51.8,58.3-83.5,81
		C3341.8,2252.6,3314.2,2264.3,3291.5,2264.3z M3412.9,2079.3c0-5.1-5.5-7.7-16.4-7.7c-10.9,0-26.4,8.4-46.6,25.1
		c-27,22.3-48,45.6-63,70c2.7,0.9,5.5,1.3,8.4,1.3c16.3,0,38-8.7,65.2-26c27.2-17.3,44.2-36.3,51.1-56.9
		C3412.4,2083.2,3412.9,2081.3,3412.9,2079.3z"/>
	<path class="st14" d="M3637.8,2063.8l9-1.9c4.7,0,9.2,1.9,13.5,5.8c4.3,3.9,6.4,6.9,6.4,9s-13.3,22.8-39.8,62s-39.8,66.5-39.8,81.9
		c0,1.3,0.2,2.6,0.6,3.9c2.1,9.8,6.8,14.8,14.1,14.8c22.3,0,63-36.8,122.1-110.5c1-1.5,2.7-2.5,4.5-2.6c1.7,0,2.6,1.6,2.6,4.8
		s-1.9,7.4-5.8,12.5c-54.8,73.3-96.6,109.9-125.3,109.9c-3.7,0-7.4-0.6-10.9-1.9c-18.9-7.3-28.3-21.4-28.3-42.4
		c0-7.4,0.9-14.7,2.6-21.9l-39.8,38.6c-25.3,22.3-43.6,33.4-54.9,33.4s-22.2-3.6-32.4-10.9c-11.6-8.6-17.4-19.9-17.4-34.1
		c0-31.3,21.8-68.6,65.5-112.1s83.7-65.2,120.1-65.2c14.1,0,23.6,4.9,28.3,14.8c1.3,3.4,2.4,6.3,3.2,8.7
		S3637.4,2063.8,3637.8,2063.8z M3445.7,2221.9c0,15.4,5.4,23.1,16.1,23.1c24.8,0,58.7-27.2,101.5-81.6l68.1-93.8c-3.4-6-9-9-16.7-9
		c-26.1,0-60.8,20.2-104.1,60.7C3467.3,2161.8,3445.7,2195.3,3445.7,2221.9z"/>
	<path class="st14" d="M3863.3,2003.5c12.8,0,23.8,4.3,32.8,12.8c9,8.6,13.5,20.6,13.5,36c0,33.8-28.1,76.2-84.2,127.2
		c-47.6,42.8-85.9,69-115,78.4c-4.7,0-10.9-2.6-18.6-7.7c-7.7-5.1-11.6-9.9-11.6-14.1c0-9.4,10.3-41.3,30.8-95.7
		s34.7-84.8,42.4-91.2c1.7-1.7,4.5-2.6,8.4-2.6s7.9,2,12.2,6.1c4.1,3.7,6.6,8.9,7.1,14.4c0,0.4-10.6,25.3-31.8,74.5
		c-21.2,49.3-31.2,78.6-29.9,88c18.4-5.6,51.3-28.1,98.6-67.5c47.3-39.4,71-74.7,71-106c0-18.8-9.4-32.5-28.3-41.1
		c-3-1.3-4.5-3.2-4.5-5.8C3856.3,2005.4,3858.6,2003.5,3863.3,2003.5z"/>
	<path class="st14" d="M3914.7,2264.3c-4.4,0.1-8.7-0.6-12.9-1.9c-27.4-7.7-41.1-23.1-41.1-46.3c0-30,18.8-64.7,56.6-104.1
		c37.7-39.4,71.5-59.1,101.5-59.1c9.9,0,17.9,2.7,24.1,8c6.2,5.3,9.3,11.9,9.3,19.6c0,24-18.1,46.9-54.3,68.8
		c-36.2,21.8-65.6,32.8-88.3,32.8c-3.1,0.1-6.1-0.4-9-1.3c-6.3,11.2-9.6,23.8-9.6,36.6c0,22.3,10.6,33.4,31.8,33.4
		c21.2,0,48.7-14.4,82.6-43.1c26.1-21,48.4-43.3,66.8-66.8c3.9-5.1,7.2-7.7,10-7.7s4.2,1.3,4.2,3.9s-1.7,6.2-5.1,10.9
		c-23.7,31-51.8,58.3-83.5,81C3965.1,2252.6,3937.4,2264.3,3914.7,2264.3z M4036.2,2079.3c0-5.1-5.5-7.7-16.4-7.7
		s-26.4,8.4-46.6,25.1c-27,22.3-48,45.6-63,70c2.7,0.9,5.5,1.3,8.4,1.3c16.3,0,38-8.7,65.2-26c27.2-17.3,44.2-36.3,51.1-56.9
		C4035.6,2083.2,4036.1,2081.3,4036.2,2079.3z"/>
	<path class="st14" d="M4178.1,2259.2c-32.1,0-48.2-17.8-48.2-53.3c0-18,4.7-37.7,14.1-59.1s19.7-39.4,30.8-54
		c-2.8,0.5-5.6,0.7-8.4,0.6c-10.3,0-18.9-7.3-25.7-21.9l-47.5,61.7c-26.6,33-42,49.5-46.3,49.5c-2.1,0-3.2-0.9-3.2-2.6
		c0-4.3,3.6-10.5,10.9-18.6c37.3-43.3,63.6-79.9,79-109.9c9.8-37.3,22.3-55.9,37.3-55.9c9.9,0,14.8,4.3,14.8,12.8
		c0,8.6-5.4,19.5-16.1,32.8l-15.4,20.6c0,9,6.6,13.5,19.9,13.5c7.7,0,16.3-2.8,25.7-8.4l16.7-10.3c0.9-0.4,3-0.6,6.4-0.6
		s7.1,2.1,10.9,6.4s5.1,8.1,3.9,11.6l-44.3,55.9c-27.4,35.1-41.1,62.9-41.1,83.2s9.4,30.5,28.3,30.5c19.7,0,43.9-10.5,72.6-31.5
		c17-12.3,32.7-26.3,46.9-41.8c13.3-15.4,20.6-23.1,21.8-23.1c3,0,4.5,1.6,4.5,4.8s-1.9,7-5.8,11.2l-20.6,23.1
		c-12,12.4-24.9,24-38.6,34.7C4227.8,2246.5,4200,2259.2,4178.1,2259.2z"/>
</g>
</svg>
